<?xml version="1.0" encoding="UTF-8"?>
<svg id="Layer_1" data-name="Layer 1" xmlns="http://www.w3.org/2000/svg" viewBox="0 0 360 360">
  <defs>
    <style>
      .cls-1, .cls-2 {
        fill:rgb(255, 255, 255);
      }

      .cls-3 {
        fill: #d62229;
      }

      .cls-4 {
        fill: #e64e50;
      }

      .cls-5, .cls-2 {
        stroke: #000;
        stroke-miterlimit: 10;
        stroke-width: .5px;
      }

      .cls-6 {
        fill: #bc324f;
      }
    </style>
  </defs>
  <path class="cls-6" d="M217.91,64.37c3.8,6.63,9.97,12.04,10.9,20.15.75,6.55-2.57,11.86-6.22,16.83-.62.85-2.83,1.23-3.99.86-2.8-.9-5.47-2.27-8.07-3.67-2.05-1.1-4.09-2.35-5.84-3.86-11.3-9.73-24-10.04-37.44-5.82-1.41.44-2.86.86-4.32,1.03-2.87.34-3.79-.75-2.77-3.52,1.56-4.25,4.18-8.01,8.52-9.4,6.93-2.2,14.01-4.22,21.18-5.32,9.14-1.4,18.24-2.61,26.67-6.69.28-.13.49-.39.74-.59.21,0,.43,0,.64,0Z"/>
  <path class="cls-4" d="M250.17,147.46c-1.72-8.98-3.18-17.45-5.02-25.84-1.03-4.72-4.2-7.81-8.98-8.97-5.05-1.22-10.07-2.88-15.2-3.39-10.21-1.02-18.59-5.54-26.17-12.06-1.05-.9-2.08-1.93-3.3-2.49-3.13-1.45-6.27-3.4-9.58-3.86-11.61-1.63-21.44,2.84-30,10.31-2.32,2.02-3.98,4.81-6.33,7.74,1.83.09,2.96.23,4.08.18,12.05-.53,23.34,2.17,34.14,7.51,12.16,6.01,23.92,12.56,33.59,22.3,1.98,1.99,4.33,6.09,6.72,8.76h26.04c0-.06.02-.12.02-.18Z"/>
  <path class="cls-3" d="M97.16,144.75c9.13-16.52,21.06-30.12,39.33-36.91.3-.11.56-.3.85-.43,13.31-5.9,13.46-19.64,6.45-28.73-2.51-3.26-3.73-3.26-5.65.48-4.72,9.15-12.19,14.85-21.85,17.87-3.14.98-6.34,1.74-9.51,2.62-7.14,1.98-14.44,3.52-21.36,6.09-6.22,2.3-10.1,7.25-11.24,14.04-1.38,8.23-3.11,18.98-4.6,27.88h25.92c.63-.92,1.17-1.98,1.68-2.89Z"/>
  <path class="cls-6" d="M136.6,143.86c.24-2.64,1.77-4.08,4.2-4.53,14.39-2.68,28.79-5.28,43.19-7.94,2.2-.41,4.38-.96,6.66-1.46-.33-.99-.34-1.43-.55-1.56-1.79-1.12-3.65-2.15-5.44-3.28-15.2-9.53-31.65-11.8-48.98-8.08-6.11,1.31-12.35,2.87-16.78,7.77-3.63,4.01-7.02,8.28-10.27,12.61-1.78,2.38-3.31,6.74-5.01,10.25h32.56c.18-1.45.35-3.09.42-3.78Z"/>
  <path class="cls-3" d="M278.27,140.83c-4.76-7.18-9.37-14.46-14.34-21.5-1.73-2.46-4.08-4.67-6.59-6.33-2.93-1.93-6.15-.65-6.09,2.11.17,7.86.1,15.77,1.1,23.54.44,3.39.79,6.46,1.54,8.99h28.94c-1.81-2.7-3.19-4.75-4.56-6.81Z"/>
  <path class="cls-3" d="M205.1,139.29c-3.76-.65-7.53-1.3-11.32-1.73-7.33-.83-14.63-1.06-21.44,2.58-2.15,1.15-3.97,4.37-4.92,7.49h47.1c-2.43-3.8-5.33-7.64-9.43-8.35Z"/>
  <path class="cls-4" d="M158.88,143.09c-3.32.85-6.27,1.6-9.36,2.39-.69.18-1.29.59-1.72,1.15-.22.28-.52.63-.86,1.02h11.52c.58-1.23.36-3.03.41-4.56Z"/>
  <path class="cls-5" d="M316.88,151.32H32.34c0-.14,0-.27,0-.41h284.66c-.04.14-.08.27-.12.41Z"/>
  <path class="cls-3" d="M250.62,234.7c-6.76,2.5-13.59,4.82-20.44,7.08-6.1,2.01-11.97,4.46-16.7,8.95-6.53,6.19-14.37,8.72-23.21,8.88-6.58.12-13.16.37-19.72.83-3.34.23-3.95,1.51-2.34,4.42,1.69,3.06,3.47,6.13,5.59,8.9,5.46,7.1,11.4,8.96,19.63,5.58,5.45-2.23,10.52-5.4,15.75-8.17,6.27-3.32,12.42-6.91,18.85-9.92,4.41-2.06,9.35-2.73,13.89-.4,2.98,1.53,4.72.55,5.94-1.85,3.42-6.73,6.86-13.48,7.19-21.27.18-4.26-.41-4.52-4.44-3.03Z"/>
  <path class="cls-4" d="M194.07,235.52c-4.66,3.09-9.76,4.53-15.35,4.45-6.59-.09-13.2.18-19.78-.12-7.62-.35-15.21-1.17-22.82-1.77-1.56-.12-3.12-.18-5.62-.31.77,1.61,1.03,2.52,1.57,3.19,3.2,4,7.05,7.25,12.18,8.21,14.12,2.65,28.01,6.38,42.72,5.34,8.72-.62,16.26-2.2,22.9-8.3,3.17-2.91,7.49-4.77,11.56-6.44,4.69-1.92,9.69-3.09,14.55-4.61,8.22-2.58,16.29-5.51,23.55-10.33,7.53-4.99,11.01-11.53,8.68-20.7,0-.03-.01-.08-.02-.11h-29.31c-14.04,11.78-29.6,21.41-44.82,31.5Z"/>
  <path class="cls-6" d="M66.34,209.99c-.87,4.82-.72,9.4,4.15,12.31,4.35,2.61,8.59,5.44,13.09,7.75,4.83,2.48,8.58,5.77,10.69,10.87,1.46,3.53,3.11,6.99,4.76,10.44,7.39,15.44,20.81,25.12,40.63,22.23,6.83-.99,12.7-3.13,17.18-8.56,2.23-2.7,2.05-3.46-1.43-4.43-4.29-1.2-8.6-2.32-12.89-3.55-11.1-3.16-20.52-8.41-25.9-19.45-2.02-4.14-4.93-7.99-8.03-11.45-6.76-7.55-13.81-14.82-20.8-22.16h-20.98c-.18,2.81-.34,5.19-.48,5.98Z"/>
  <path class="cls-3" d="M98.97,208.76c5.22,5.87,10.74,11.5,15.68,17.6,2.76,3.41,5.91,5.37,10.12,5.83,15.58,1.69,31.15,2.12,46.68-.51,2.29-.39,4.62-.75,6.83-1.44.79-.24,1.96-1.69,1.78-2.11-.38-.92-1.39-1.76-2.35-2.2-.65-.3-1.64.2-2.48.2-5.28,0-10.65.56-15.84-.17-15.4-2.19-28.15-9.2-37.44-21.94h-25.47c.94,2.14,1.82,3.99,2.48,4.74Z"/>
  <path class="cls-6" d="M194.4,213.26c-4.4.61-8.87.68-13.31.99-2.27.16-4.53.31-7.54.52,1.03.88,1.37,1.26,1.78,1.52,7.83,4.94,16.51,5.94,25.42,4.97,3.05-.33,6.16-1.62,8.87-3.14,3.69-2.07,7.06-4.72,10.49-7.22,1.56-1.14,3.12-3.9,4.67-6.9h-17.2c-3.62,4.24-7.27,8.42-13.18,9.24Z"/>
  <path class="cls-4" d="M147.99,211.84c1.77,1.24,3.45,1.17,5.24-.18,1.53-1.16,3.3-1.97,5.22-2.09,5.68-.36,11.44-.06,17.06-.8,5.4-.71,10.69-2.33,15.95-3.82.03,0,.06-.02.1-.03-.03-.19-.07-.51-.1-.89h-54.36c3.62,2.62,7.23,5.26,10.89,7.82Z"/>
  <path class="cls-2" d="M316.88,200.08H32.34c0-.14,0-.27,0-.41h284.66c-.04.14-.08.27-.12.41Z"/>
  <g>
    <path class="cls-1" d="M25.47,188.72l2.28-1.87c-.09-2.52-.19-6.75-.19-11.06s.09-7.81.19-10.06l-2.28-1.75c-.12-.11-.12-.3,0-.3h11.31c5.28,0,6.94,2.9,6.94,6.14,0,2.48-.75,4-1.65,5.07l-2.16,1.37,4.78,10.6,1.81,1.83c.19.19.13.3-.06.34h-7.56l-.06-1.18-4.03-10.37c-.44-.04-.94-.08-1.31-.15v9.53l2.22,1.87c.12.11.12.3,0,.3h-10.22c-.16,0-.12-.19,0-.3ZM36.69,164.59c-.34-.23-.91-.38-1.47-.5-.56-.08-1.19-.15-1.75-.15v13.11c.31.04.75,0,1.19-.04,2.25-.27,3.03-2.48,3.03-6.71,0-2.71-.41-4.8-1-5.72Z"/>
    <path class="cls-1" d="M54.45,189.52c-5.03,0-8.62-3.32-8.62-9.76s3.66-9.8,8.37-9.8,8.59,3.13,8.59,9.38-3.5,10.18-8.34,10.18ZM54.26,170.57c-.56-.15-1.09-.19-1.59-.11-.53,1.22-.94,5.72-.94,9.19.03,6.06.5,8.62,2.69,9.26.56.19,1.09.19,1.53.11.59-1.49.97-6.18.94-9.53-.03-6.1-.56-8.42-2.62-8.92Z"/>
    <path class="cls-1" d="M65.45,188.18c-.56-.38-.59-.72-.62-1.37-.03-1.14-.06-2.71-.03-4.23.03-.19.16-.27.31,0l4.09,6.52c.63.11,1.28.04,2-.15,1.59-.38,2.41-1.45,2.41-3.36,0-1.64-.62-2.59-3.19-3.28-3.75-.91-5.47-3.05-5.47-6.56s2.66-5.79,6.59-5.79c1.72,0,3.19.23,4.06.69.62.34.72.57.78,1.33.09,1.33.16,2.67.22,4.08,0,.23-.12.19-.28,0l-4.09-5.72c-.47-.04-1.09.04-1.56.15-.62.19-1.09.57-1.41,1.07-.31.5-.47,1.14-.47,1.83,0,1.87.62,2.75,3.31,3.55,3.81,1.03,5.34,2.74,5.34,6.1,0,3.89-2.69,6.48-7.09,6.48-2.22,0-4-.65-4.9-1.33Z"/>
    <path class="cls-1" d="M87.3,169.96c4.19,0,6.25,3.58,6.06,8.62-.03.15-.19.34-.34.42l-8.22-.23c.22,5.3,1.34,7.4,4.37,7.4,1.59,0,2.78-.19,3.87-.92.16-.11.31,0,.12.34-1.34,2.29-3.59,3.93-5.84,3.93-4.69,0-8.15-2.59-8.15-9.53s4.09-10.03,8.12-10.03ZM88.52,178c.06-.65.06-1.75.06-2.36,0-3.55-.28-4.84-1.59-5.11-.5-.11-.84-.11-1.22-.08-.47.99-1.03,4.38-.97,8.04l3.72-.5Z"/>
    <path class="cls-1" d="M119.59,188.98c-.72-1.79-1.94-5.57-2.87-8.65-.84-2.9-1.75-6.41-2.28-8.65l-5.87,17.31c-.12.46-.37.46-.53,0-.75-2.06-2.56-7.97-3.69-12.05-1.03-3.93-2.25-8.5-2.81-11.06l-2.19-1.91c-.12-.15-.12-.3.03-.3h9.87c.16,0,.16.19.03.3l-2.03,1.79c.56,1.68,1.34,4.27,2.12,7.24.84,3.09,1.41,5.3,1.84,7.05l2.87-9.68-1.03-4.54-2-1.87c-.12-.15-.12-.3.03-.3h9.53c.16,0,.13.19,0,.3l-2.09,1.72c.5,1.64,1.34,4.46,2.03,7.01.88,3.2,1.47,5.34,1.87,7.24l3.59-14.03-2.31-1.94c-.12-.11-.16-.3.03-.3h5.4c.19,0,.16.19.03.3l-2.19,1.94-6.9,23.06c-.12.46-.34.42-.5,0Z"/>
    <path class="cls-1" d="M136.03,177.89c0,3.16-.06,6.79-.12,9.03l1.72,1.79c.16.15.16.3,0,.3h-8.65c-.19,0-.16-.15,0-.3l1.72-1.79c-.03-1.56-.09-4.04-.09-6.86,0-3.13.06-5.6.09-7.05l-2.06-1.83c-.16-.11-.16-.31.03-.34.47-.08,5.06-.34,7.09-.34.22,1.3.28,3.32.28,7.4ZM130.04,164.17c0-2.02,1.38-3.74,3.06-3.74s3.03,1.71,3.03,3.74-1.34,3.77-3.03,3.77-3.06-1.68-3.06-3.77Z"/>
    <path class="cls-1" d="M147.35,189.02h-8.47c-.16,0-.16-.15,0-.3l1.75-1.79c-.03-1.56-.09-3.81-.09-6.52,0-3.32.06-5.87.09-7.36l-2.06-1.91c-.16-.11-.16-.27.03-.3.47-.08,5-.34,7.03-.34.16.72.25,1.6.31,3.2,1.03-.99,3.28-3.47,5.19-3.47,2.87,0,4.53,1.64,4.66,6.52.09,2.97-.16,7.47-.31,10.18l1.91,1.79c.16.11.19.3,0,.3h-8.81c-.16,0-.16-.11,0-.3l1.47-1.79c.12-2.17.22-6.33.22-8.54,0-3.7-.25-4.76-1.94-4.8-1.13-.04-1.84.19-2.37.38.03.91.03,2.02.03,3.47,0,2.63-.03,6.59-.12,9.49l1.5,1.79c.12.11.16.3,0,.3Z"/>
    <path class="cls-1" d="M171.92,189.4c-1.31-.08-2.16-.95-2.53-2.63-.91,1.11-2.75,2.63-4.34,2.63-3.47,0-6.34-1.98-6.34-8.96s3.78-10.22,7.87-10.22c1.09,0,2,.15,2.66.53.03-2.44.06-5.83.16-7.28l-2.22-1.68c-.16-.08-.16-.3,0-.34.97-.19,5.15-.8,7.12-.84.28,1.14.38,5.53.34,12.92,0,5.57-.12,9.3-.28,12.43l.28.53,2.16.65c.12.08.12.19.03.27-.84.84-3.03,1.98-4.9,1.98ZM167.54,186.77c.69,0,1.34-.08,1.81-.23-.22-2.29-.12-8.08-.12-13.42-.44-1.07-1.16-1.83-2-2.17-.66-.23-1.19-.34-1.72-.3-.69,1.3-1.25,4.76-1.25,9.19,0,5.38,1.06,6.94,3.28,6.94Z"/>
    <path class="cls-1" d="M186.05,189.52c-5.03,0-8.62-3.32-8.62-9.76s3.66-9.8,8.37-9.8,8.59,3.13,8.59,9.38-3.5,10.18-8.34,10.18ZM185.87,170.57c-.56-.15-1.09-.19-1.59-.11-.53,1.22-.94,5.72-.94,9.19.03,6.06.5,8.62,2.69,9.26.56.19,1.09.19,1.53.11.59-1.49.97-6.18.94-9.53-.03-6.1-.56-8.42-2.62-8.92Z"/>
    <path class="cls-1" d="M211.06,188.98c-.53-1.07-1.53-3.51-2.37-5.98-.81-2.36-1.53-4.57-1.91-5.95l-4.81,11.93c-.12.34-.31.34-.47,0-.66-1.49-2.15-5.79-3.12-8.92-.94-3.01-1.72-5.95-2.12-7.66l-1.53-1.68c-.16-.19-.12-.3,0-.3h8.19c.16,0,.16.11,0,.3l-1.38,1.6c.34,1.03,1.03,3.35,1.47,4.8.47,1.68,1.09,3.85,1.41,5.07l2.03-6.29c-.25-.84-.66-2.55-.84-3.51l-1.34-1.68c-.12-.19-.16-.3.03-.3h7.9c.16,0,.19.11.03.3l-1.47,1.6c.34.99.97,2.97,1.53,4.76.47,1.52,1.06,3.62,1.34,4.8l2.56-9.57-1.94-1.6c-.19-.15-.19-.3,0-.3h4.62c.13,0,.19.11,0,.3l-1.69,1.68-5.69,16.58c-.09.34-.31.34-.44,0Z"/>
    <path class="cls-1" d="M230.26,167.75c0,1.6.41,2.93,1.78,3.85,1.59.99,2.84,1.45,4.69,2.48,2.13,1.22,3.78,3.43,3.72,7.36-.03,4.65-2.91,8.2-8.25,8.2-2.44,0-4.78-.76-5.97-1.75-.5-.42-.53-.65-.53-1.33l.06-5.49c0-.34.19-.38.34,0l3.75,8.04c.78.08,1.53.08,2.69-.11,2.81-.38,3.56-2.67,3.56-4.84,0-1.49-.53-2.78-1.91-3.62-1.72-1.03-3.25-1.45-4.97-2.67-2.25-1.52-3.28-4.12-3.22-7.2.06-4.46,2.75-7.55,7.4-7.59,2.19-.04,3.94.34,5.19,1.03.66.31.75.53.78,1.3l.19,5.11c0,.46-.16.46-.41,0l-3.87-7.05c-.63,0-1.25.04-2.06.19-.91.15-1.56.5-2.03.99-.56.61-.94,1.79-.94,3.13Z"/>
    <path class="cls-1" d="M243.8,183.04c-.03-3.01,0-6.79.16-9.84h-1.91c-.12,0-.09-.31,0-.38l2.66-2.36,4.28-5.26c.19-.27.5-.3.5,0-.03,1.26-.09,3.7-.09,5.53l3.97-.11c.06,0-.09,2.78-.16,2.78l-3.84-.19c-.06,2.1-.09,5.98-.09,8.77,0,3.93.47,4.42,2.31,4.42.75,0,1.91-.15,2.53-.34.09-.04.19.15.09.27-.78.92-2.72,3.2-5.44,3.2-3.44,0-4.81-1.68-4.97-6.48Z"/>
    <path class="cls-1" d="M268.3,189.4c-1.44-.15-2.31-1.37-2.62-2.97-.03-.19-.03-.38-.06-.57-.91.92-3.34,3.55-5.22,3.55-2.69,0-4.31-1.33-4.59-6.18-.12-2.25,0-7.81.16-10.14l-1.84-1.64c-.09-.11-.12-.27,0-.31.72-.15,2.09-.34,3.56-.46.97-.11,2.15-.15,3.53-.23.19.99.09,2.93.06,4.92-.03,2.21-.06,3.7-.03,5.87.06,3.7.47,4.77,2.15,4.77,1.13,0,1.63-.15,2.22-.42-.12-1.64-.09-3.66-.09-5.6,0-2.48.09-5.45.19-6.9l-1.84-1.56c-.12-.15-.16-.27,0-.31.38-.11,2.22-.42,3.53-.57,1.59-.19,2.84-.23,3.47-.27.19,1.37.22,4.88.22,6.33,0,4.61-.09,7.4-.19,9.26l.28.53,2.03.65c.12.08.12.15.03.27-.84.76-2.78,1.98-4.94,1.98Z"/>
    <path class="cls-1" d="M287.56,189.4c-1.31-.08-2.16-.95-2.53-2.63-.91,1.11-2.75,2.63-4.34,2.63-3.47,0-6.34-1.98-6.34-8.96s3.78-10.22,7.87-10.22c1.09,0,2,.15,2.66.53.03-2.44.06-5.83.16-7.28l-2.22-1.68c-.16-.08-.16-.3,0-.34.97-.19,5.15-.8,7.12-.84.28,1.14.38,5.53.34,12.92,0,5.57-.12,9.3-.28,12.43l.28.53,2.16.65c.12.08.12.19.03.27-.84.84-3.03,1.98-4.9,1.98ZM283.18,186.77c.69,0,1.34-.08,1.81-.23-.22-2.29-.12-8.08-.12-13.42-.44-1.07-1.16-1.83-2-2.17-.66-.23-1.19-.34-1.72-.3-.69,1.3-1.25,4.76-1.25,9.19,0,5.38,1.06,6.94,3.28,6.94Z"/>
    <path class="cls-1" d="M300.38,177.89c0,3.16-.06,6.79-.12,9.03l1.72,1.79c.16.15.16.3,0,.3h-8.65c-.19,0-.16-.15,0-.3l1.72-1.79c-.03-1.56-.09-4.04-.09-6.86,0-3.13.06-5.6.09-7.05l-2.06-1.83c-.16-.11-.16-.31.03-.34.47-.08,5.06-.34,7.09-.34.22,1.3.28,3.32.28,7.4ZM294.38,164.17c0-2.02,1.38-3.74,3.06-3.74s3.03,1.71,3.03,3.74-1.34,3.77-3.03,3.77-3.06-1.68-3.06-3.77Z"/>
    <path class="cls-1" d="M311.63,189.52c-5.03,0-8.62-3.32-8.62-9.76s3.66-9.8,8.37-9.8,8.59,3.13,8.59,9.38-3.5,10.18-8.34,10.18ZM311.44,170.57c-.56-.15-1.09-.19-1.59-.11-.53,1.22-.94,5.72-.94,9.19.03,6.06.5,8.62,2.69,9.26.56.19,1.09.19,1.53.11.59-1.49.97-6.18.94-9.53-.03-6.1-.56-8.42-2.62-8.92Z"/>
    <path class="cls-1" d="M322.64,188.18c-.56-.38-.59-.72-.62-1.37-.03-1.14-.06-2.71-.03-4.23.03-.19.16-.27.31,0l4.09,6.52c.62.11,1.28.04,2-.15,1.59-.38,2.4-1.45,2.4-3.36,0-1.64-.62-2.59-3.19-3.28-3.75-.91-5.47-3.05-5.47-6.56s2.66-5.79,6.59-5.79c1.72,0,3.19.23,4.06.69.63.34.72.57.78,1.33.09,1.33.16,2.67.22,4.08,0,.23-.12.19-.28,0l-4.09-5.72c-.47-.04-1.09.04-1.56.15-.62.19-1.09.57-1.41,1.07-.31.5-.47,1.14-.47,1.83,0,1.87.62,2.75,3.31,3.55,3.81,1.03,5.34,2.74,5.34,6.1,0,3.89-2.69,6.48-7.09,6.48-2.22,0-4-.65-4.9-1.33Z"/>
  </g>
</svg>