<svg version="1.1" id="Layer_1" xmlns="http://www.w3.org/2000/svg" xmlns:xlink="http://www.w3.org/1999/xlink" x="0px" y="0px"
	 width="100%" viewBox="0 0 1290 903" enable-background="new 0 0 1290 903" xml:space="preserve">
<path fill="#FFFFFF" opacity="1.000000" stroke="none" 
	d="
M659.000000,904.000000 
	C439.756073,904.000000 220.512177,904.000000 1.000000,904.000000 
	C1.000000,775.975220 1.000000,647.950256 1.393482,519.609375 
	C2.754816,519.862244 3.703854,520.880615 4.693768,520.921997 
	C9.015402,521.102844 13.348904,521.000000 17.678099,521.000000 
	C26.739481,521.000000 35.800865,521.000000 44.862247,521.000000 
	C45.055695,520.598267 45.249142,520.196533 45.442593,519.794800 
	C44.450558,518.802063 43.392105,517.866333 42.479717,516.805115 
	C40.284027,514.250977 36.450825,511.735504 36.296211,509.031830 
	C35.614807,497.116425 36.001884,485.139954 36.001884,473.185577 
	C36.492313,472.833527 36.982742,472.481445 37.473175,472.129364 
	C38.851368,473.465240 40.763733,474.557159 41.506363,476.183258 
	C43.629669,480.832642 45.286720,485.695618 47.111282,490.480621 
	C50.912277,500.449036 54.703060,510.421326 58.647678,520.785156 
	C68.293861,520.785156 79.038681,520.785156 91.249184,520.785156 
	C76.402405,505.091125 72.603539,484.868103 63.363678,468.543121 
	C67.331894,464.991821 71.499016,462.546417 73.834099,458.921051 
	C79.758835,449.722443 80.423225,439.387787 76.790703,429.217865 
	C75.538887,425.713165 72.349800,422.658173 69.470772,420.026764 
	C63.260235,414.350372 55.074596,414.397888 47.450710,414.150177 
	C31.981846,413.647522 16.485197,414.000000 1.000000,414.000000 
	C1.000000,276.381622 1.000000,138.763260 1.000000,1.000000 
	C267.024872,1.000000 533.049805,1.000000 799.435852,1.340363 
	C796.663879,3.405100 793.658508,5.435369 790.377686,6.806213 
	C759.784729,19.589148 727.324646,24.723522 694.897583,30.031193 
	C682.375427,32.080830 669.818420,34.101711 657.464600,36.948631 
	C641.815613,40.554913 626.302368,44.792263 610.832458,49.121845 
	C594.827637,53.601162 579.596436,59.683334 571.170105,75.464104 
	C567.363770,82.592697 564.003357,90.046303 561.324402,97.663292 
	C559.055847,104.113449 562.626160,108.456650 569.583374,107.866638 
	C576.846741,107.250656 584.241516,106.308914 591.189819,104.217209 
	C609.347412,98.751015 627.726562,94.274773 646.629761,93.227554 
	C657.250000,92.639214 668.055603,93.829468 678.672668,95.097435 
	C697.385376,97.332237 714.566406,104.149834 730.172852,114.667610 
	C744.345459,124.219032 757.847473,134.849594 772.485168,143.598969 
	C783.423218,150.136948 795.565063,154.765427 807.433167,159.600174 
	C813.621399,162.121094 822.183533,159.097992 825.558228,153.769241 
	C831.822510,143.877701 838.527588,134.130295 843.520569,123.598282 
	C852.409546,104.848419 852.355652,85.282417 845.338928,65.844505 
	C839.961548,50.947689 830.314453,38.541073 821.329773,25.746227 
	C815.652771,17.661633 810.427795,9.259621 805.000000,1.000002 
	C966.929260,1.000000 1128.858521,1.000000 1291.000000,1.000000 
	C1291.000000,163.358170 1291.000000,325.716431 1290.777222,488.522705 
	C1290.554443,488.970703 1290.108521,488.952240 1290.058350,488.563416 
	C1288.099976,484.709869 1286.626465,480.897919 1284.193115,477.852844 
	C1279.136353,471.525055 1271.101074,470.599792 1264.066284,468.127533 
	C1253.313110,464.348572 1252.941040,454.650970 1257.406738,447.231415 
	C1260.156738,442.662567 1267.324341,442.628418 1270.354492,446.836212 
	C1273.659546,451.425659 1276.866211,456.088013 1280.257446,460.612396 
	C1282.012817,462.954376 1284.074829,465.066620 1285.998169,467.282654 
	C1287.000000,465.461395 1287.000122,464.188049 1286.999878,462.914673 
	C1286.999390,459.581482 1287.260376,456.223541 1286.947754,452.919891 
	C1286.109131,444.059479 1285.944336,443.549225 1276.964355,441.615204 
	C1272.348877,440.621185 1267.396362,440.899475 1262.609619,441.045044 
	C1243.264282,441.633545 1235.128296,455.121063 1238.480225,473.000122 
	C1240.066162,481.459259 1244.975220,487.251068 1252.917480,490.409668 
	C1257.064209,492.058746 1261.330322,493.405762 1265.523193,494.941528 
	C1272.353394,497.443268 1274.532349,502.371704 1273.968384,508.138519 
	C1273.313599,514.836670 1268.907349,518.421204 1261.985352,520.188904 
	C1257.653809,521.295044 1255.918457,519.800964 1253.971436,516.558594 
	C1249.580566,509.246796 1244.946411,502.079681 1240.320068,494.912537 
	C1239.743530,494.019287 1238.615601,493.481934 1237.000000,492.181488 
	C1237.000000,498.604065 1237.402100,503.799652 1236.895508,508.905029 
	C1236.295532,514.951721 1239.427979,517.777771 1244.291626,520.111145 
	C1250.760620,523.214661 1257.560791,523.216125 1264.409546,522.966064 
	C1271.560303,522.704956 1278.205566,520.609253 1283.116577,515.225525 
	C1286.173096,511.874756 1288.400513,507.767700 1291.000000,504.000000 
	C1291.000000,637.277161 1291.000000,770.554321 1291.000000,904.000000 
	C1087.975098,904.000000 884.950195,904.000000 681.625916,903.624084 
	C693.921509,902.199219 705.148438,896.822632 716.080017,891.261230 
	C735.751953,881.252930 754.932190,870.283447 774.447937,859.961487 
	C799.566711,846.676025 824.560974,833.114929 850.093323,820.666016 
	C867.336304,812.258789 885.501099,811.294189 903.286560,820.076111 
	C915.521179,826.117188 924.209900,823.647095 930.046753,810.987976 
	C934.740845,800.807373 940.164673,790.953308 944.620239,780.674927 
	C953.152893,760.991089 959.353821,740.785034 959.174255,718.880188 
	C959.068848,706.009094 955.104858,705.105042 944.505493,708.833618 
	C922.077271,716.723267 899.621155,724.533691 877.180664,732.388428 
	C860.388123,738.266235 843.379089,743.604736 826.874878,750.204773 
	C809.783325,757.039612 794.773315,767.540405 781.372192,780.178223 
	C767.081726,793.654724 750.030457,801.999573 731.570496,808.040771 
	C711.554138,814.591370 690.729065,813.420349 670.190063,814.940491 
	C660.954956,815.623962 651.669067,815.591553 642.412170,816.015930 
	C629.388367,816.612976 616.373474,817.412415 603.348267,817.973267 
	C594.001221,818.375732 590.231018,824.552429 594.457886,832.957947 
	C602.430847,848.812683 611.005432,864.421387 622.640503,877.836853 
	C631.944336,888.564209 641.918396,899.117981 656.977478,902.100098 
	C657.746887,902.252563 658.330078,903.345154 659.000000,904.000000 
M551.984558,519.315613 
	C549.445984,516.439453 546.907349,513.563293 544.365967,510.683960 
	C544.560303,508.266113 544.909302,505.532959 544.971252,502.793274 
	C545.076782,498.130371 544.401245,493.368286 545.121948,488.817017 
	C546.869080,477.783020 546.182739,466.921570 543.975647,456.100677 
	C540.945679,441.245392 525.499817,438.462128 516.459534,445.092834 
	C512.476501,448.014221 508.652405,451.152283 504.000000,454.781921 
	C504.000000,451.988770 503.795258,450.188538 504.039825,448.451599 
	C504.677887,443.920013 502.702484,442.632477 498.392578,442.935364 
	C490.018829,443.523834 481.618591,443.735657 471.796143,444.166321 
	C473.647766,446.499908 474.617950,448.347473 476.121582,449.497528 
	C480.197876,452.615234 481.248505,456.487091 481.124725,461.548462 
	C480.770447,476.035461 480.845856,490.539368 481.092621,505.030823 
	C481.168060,509.461700 480.500549,513.031555 476.773376,515.859680 
	C475.395874,516.904968 474.707062,518.857849 473.548492,520.635620 
	C486.179901,520.635620 498.032471,520.635620 510.715424,520.635620 
	C509.570526,518.499512 509.142242,516.413940 507.884674,515.582031 
	C503.036591,512.375000 503.890961,507.617676 504.039459,503.080719 
	C504.211487,497.825134 504.859497,492.582367 504.956573,487.327698 
	C505.116577,478.666595 504.960175,469.999939 505.049194,461.336792 
	C505.060669,460.221619 505.397064,458.672211 506.166260,458.073792 
	C510.989227,454.321411 520.224609,457.547485 520.904602,463.355652 
	C521.611572,469.394409 521.953918,475.511414 521.926331,481.591797 
	C521.890381,489.510223 521.152039,497.424561 521.076477,505.344116 
	C521.038818,509.293793 520.867737,512.756714 517.287598,515.409973 
	C516.097778,516.291809 515.846802,518.440552 515.068604,520.543091 
	C515.373840,520.639832 515.679016,520.736633 516.912231,520.987671 
	C528.278198,520.936218 539.644104,520.884766 551.543091,520.931396 
	C551.639832,520.626160 551.736633,520.320984 551.984558,519.315613 
M350.087738,414.012360 
	C336.788147,414.122681 323.488342,414.219910 310.189758,414.402557 
	C309.762695,414.408417 309.347717,415.289764 308.499084,416.244537 
	C309.934753,417.289154 311.340485,418.055023 312.414825,419.146912 
	C314.698120,421.467468 318.015442,423.622345 318.796387,426.432251 
	C324.174133,445.781647 328.787964,465.342499 334.097137,484.712128 
	C337.317810,496.462219 341.291016,508.008850 345.088654,519.593628 
	C345.460693,520.728577 346.975800,521.488831 348.184601,522.635803 
	C356.310486,498.836823 364.132050,475.929230 371.953583,453.021637 
	C374.772186,459.183380 376.208923,465.245239 378.035645,471.187225 
	C382.890106,486.977966 387.878235,502.728058 392.931000,518.456482 
	C393.356171,519.779907 394.663910,520.819824 395.561646,521.991455 
	C396.359375,520.753540 397.497131,519.617004 397.901459,518.261658 
	C401.341980,506.728943 404.621552,495.148315 408.002930,483.597748 
	C412.692047,467.579987 417.288269,451.532745 422.213623,435.587524 
	C424.122253,429.408600 425.277283,422.616028 432.138214,419.191223 
	C433.594818,418.464111 434.341217,416.314178 435.825073,414.248718 
	C426.698212,414.248718 418.943329,414.248718 409.619965,414.248718 
	C411.781219,416.789795 412.847900,419.061737 414.606537,419.926453 
	C420.579346,422.863220 420.683502,427.137695 418.292206,432.369171 
	C418.032959,432.936340 418.151245,433.663696 417.988953,434.289368 
	C414.234436,448.764130 410.465332,463.235138 406.555176,478.259247 
	C405.783447,477.169800 405.231812,476.698730 405.071106,476.119232 
	C400.694000,460.339539 396.559875,444.488159 391.880554,428.799286 
	C390.595398,424.490387 391.436768,422.146393 395.052521,419.898590 
	C396.873505,418.766602 398.114441,416.701508 400.278992,414.335449 
	C385.204956,414.335449 371.670929,414.335449 358.136932,414.335449 
	C357.856201,414.702026 357.575500,415.068573 357.294769,415.435150 
	C359.107086,417.367188 360.672943,419.646362 362.789948,421.149200 
	C365.890961,423.350525 367.216492,426.364136 367.941803,429.788666 
	C369.477600,437.040039 371.791718,444.118622 368.153778,451.663269 
	C365.958069,456.216919 365.329529,461.512787 363.859589,466.434174 
	C362.693726,470.337616 361.319397,474.178741 359.881165,478.519775 
	C358.932800,477.344788 358.307648,476.899292 358.148041,476.324554 
	C353.593689,459.924194 349.204926,443.476379 344.466034,427.129974 
	C343.566925,424.028412 344.725189,422.722321 346.730316,420.959930 
	C348.676758,419.249115 350.151489,417.001709 351.931396,414.456909 
	C351.626190,414.360138 351.320984,414.263397 350.087738,414.012360 
M463.341125,794.845581 
	C447.803894,787.659851 432.467926,780.170654 419.190033,769.068481 
	C408.062500,759.764404 398.158875,749.363770 390.589600,736.988403 
	C384.649963,727.277405 379.552185,717.054626 373.716278,707.276550 
	C361.072693,686.092346 343.395081,668.990906 327.153259,650.750366 
	C317.472198,639.878113 307.362457,629.382751 297.309875,618.847351 
	C286.650604,607.676025 275.908997,596.579590 264.990631,585.663269 
	C263.477570,584.150452 260.749512,583.125305 258.575989,583.111389 
	C231.922333,582.940247 205.267227,582.996399 178.612488,583.009888 
	C177.159515,583.010681 175.706604,583.155273 173.864105,583.253784 
	C173.520859,589.784058 173.563004,596.066711 172.782227,602.245422 
	C171.473099,612.605286 168.981064,622.740967 170.849060,633.424438 
	C172.559647,643.207703 176.633209,651.683777 184.780762,656.758606 
	C206.024628,669.990723 227.773270,682.415833 249.384323,695.053894 
	C265.895935,704.709900 279.266205,717.278992 287.433044,734.887695 
	C296.595337,754.642578 305.006195,774.806946 315.315125,793.946899 
	C321.826477,806.036194 330.660675,817.033020 339.456879,827.691406 
	C349.559296,839.932556 362.159729,849.607849 376.001221,857.398926 
	C393.523193,867.261719 412.469238,873.094971 432.463531,874.859863 
	C441.749146,875.679504 451.167877,875.078430 460.524872,874.982849 
	C476.829956,874.816223 492.610809,871.714905 508.043976,866.510864 
	C523.255005,861.381714 536.524841,853.200500 547.114136,841.172363 
	C551.069641,836.679321 556.865295,832.576965 555.664185,824.727844 
	C552.442078,822.818237 549.443176,820.151489 545.960754,819.125122 
	C527.011902,813.540527 507.919983,808.443298 488.927673,803.002502 
	C480.556976,800.604553 472.305267,797.791260 463.341125,794.845581 
M1013.546875,627.946350 
	C1017.897400,615.665466 1017.816956,603.046936 1015.794495,590.445984 
	C1015.312866,587.444946 1016.098022,582.820374 1009.832397,582.864136 
	C971.174866,583.134644 932.514404,582.975281 893.855225,583.078674 
	C892.071716,583.083435 889.974792,583.828552 888.561279,584.922974 
	C880.269348,591.342590 872.402039,598.336243 863.902222,604.457031 
	C837.799988,623.253479 811.716064,642.093140 785.171082,660.252319 
	C758.369202,678.587097 731.075378,696.205994 703.900330,713.990601 
	C685.522461,726.017944 665.438354,732.299377 643.265381,732.072205 
	C614.440430,731.776794 585.610168,732.000183 556.782227,731.999390 
	C555.449219,731.999329 554.108276,732.083679 552.784363,731.971436 
	C537.381775,730.665222 521.986084,729.275696 506.579498,728.020081 
	C497.055511,727.243835 487.509033,726.742310 477.986145,725.954590 
	C473.093933,725.549927 468.243774,724.442627 463.352478,724.265808 
	C455.348053,723.976440 447.325500,724.187500 439.505249,724.187500 
	C443.157654,738.283264 454.347870,747.512146 465.048187,756.932312 
	C477.265442,767.687927 492.499969,771.271362 508.071442,774.056274 
	C531.183533,778.189697 554.167725,783.050781 577.305908,787.022278 
	C593.738953,789.842957 610.277771,792.427307 626.878357,793.773743 
	C640.488647,794.877686 654.259766,794.025818 667.959473,793.995178 
	C687.255615,793.952087 706.238586,791.325378 724.709534,785.865784 
	C739.882874,781.380920 753.577332,773.883179 765.872864,763.750244 
	C773.175781,757.731812 780.590088,751.618713 788.736023,746.896667 
	C812.043762,733.385620 837.585083,725.272888 863.377258,718.091431 
	C892.462036,709.993164 921.135864,700.642883 948.120667,687.108337 
	C962.633972,679.829102 976.592957,671.036682 989.632446,661.352234 
	C1000.587769,653.215759 1009.170044,642.319702 1013.546875,627.946350 
M902.629456,212.923508 
	C899.646606,210.926651 896.883911,208.423065 893.644897,207.015991 
	C874.105774,198.528168 853.206238,194.730698 832.587891,190.141663 
	C820.178711,187.379730 807.347839,186.536392 794.906433,183.890656 
	C764.346008,177.391815 737.670532,162.506073 714.344727,142.359924 
	C699.999023,129.969742 684.025696,121.234238 666.910400,114.178566 
	C655.297302,109.391151 642.739014,110.037361 630.360596,109.925575 
	C611.464478,109.754936 593.589233,114.268486 576.763306,122.202400 
	C550.806335,134.441895 527.529053,150.401154 510.910187,174.570648 
	C508.127411,178.617767 505.108582,182.502609 502.198853,186.462433 
	C502.409485,186.974960 502.620117,187.487473 502.830750,188.000000 
	C508.240845,188.000000 513.651367,188.043976 519.060974,187.992142 
	C539.057861,187.800552 558.951721,188.177780 578.770203,191.836304 
	C598.406372,195.461136 617.693848,200.247543 635.944824,208.169724 
	C654.657471,216.292343 672.947632,225.442398 691.125427,234.725021 
	C704.054138,241.327164 716.655823,248.618134 729.110840,256.089478 
	C753.499756,270.719543 776.518127,287.432556 796.564209,307.552307 
	C807.931763,318.961731 816.970825,332.724030 826.729736,345.674469 
	C828.601074,348.157806 830.279968,349.046082 833.171692,349.040649 
	C867.003296,348.977203 900.835144,349.001984 934.666870,348.992157 
	C935.973816,348.991760 937.280762,348.877289 938.803528,348.805878 
	C938.858521,347.805481 939.067749,346.981842 938.920776,346.227600 
	C936.644958,334.548615 934.291382,322.884796 932.018250,311.205292 
	C927.657898,288.801788 923.292786,266.398987 919.017822,243.979080 
	C916.760803,232.142532 912.341064,221.460083 902.629456,212.923508 
M420.658936,204.054596 
	C436.143219,196.696793 451.602692,189.286163 467.119110,181.996780 
	C481.214081,175.375183 494.115692,167.176590 502.959137,153.972733 
	C513.719666,137.906525 517.001282,120.038727 513.874451,101.154060 
	C510.939941,83.430977 502.701294,68.065422 491.004608,54.552681 
	C486.287994,49.103764 481.160919,49.126442 476.189941,54.359447 
	C475.079224,55.528706 474.071320,56.873047 473.323700,58.298161 
	C463.440125,77.138474 451.488129,94.289818 434.744019,107.854980 
	C422.252228,117.975159 408.859375,126.726822 393.694794,131.784409 
	C373.316742,138.580765 352.521973,144.152695 331.824005,149.957626 
	C312.044800,155.504883 292.044373,160.286987 272.359863,166.140793 
	C257.208801,170.646408 241.990219,175.010864 229.369644,185.724380 
	C217.259781,196.004318 209.459183,208.842392 206.253265,223.801895 
	C201.317703,246.832550 197.907852,270.195496 194.057251,293.451691 
	C191.012802,311.839020 188.278900,330.277771 185.406662,348.696442 
	C185.766266,348.794434 186.083008,348.956177 186.399826,348.956360 
	C221.216873,348.978668 256.034119,349.030640 290.850433,348.875031 
	C292.565704,348.867371 294.883484,347.453339 295.869507,345.987213 
	C298.851166,341.553711 301.164429,336.677521 304.007996,332.143005 
	C312.967865,317.855072 321.573273,303.309906 331.238129,289.510193 
	C338.908813,278.557831 347.517487,268.178589 356.476074,258.235413 
	C365.532135,248.184021 374.941132,238.279572 385.278290,229.600372 
	C396.198700,220.431473 408.397278,212.784897 420.658936,204.054596 
M463.976868,347.479584 
	C464.650665,342.459869 465.901184,337.437225 465.875580,332.421082 
	C465.825684,322.644287 474.637878,315.415741 483.166809,313.996399 
	C491.199951,312.659607 499.242706,311.368439 507.247955,309.878418 
	C526.436584,306.306915 545.590576,302.548126 564.787231,299.020874 
	C581.920776,295.872650 599.108643,293.020081 616.242981,289.876190 
	C631.758484,287.029358 647.250000,284.045197 662.721497,280.967590 
	C672.189392,279.084229 681.599487,276.910553 692.151428,274.625641 
	C689.862000,271.124512 688.761841,267.668274 686.410461,266.150177 
	C675.618347,259.182770 664.696045,252.353226 653.413574,246.223038 
	C631.341003,234.230255 608.350830,224.163910 583.565002,219.450592 
	C567.542542,216.403763 551.230347,213.870255 534.975098,213.339920 
	C518.410583,212.799500 501.636108,214.077774 485.176239,216.248276 
	C468.790802,218.408981 452.527161,222.062119 436.492126,226.163452 
	C417.583344,230.999832 400.934326,240.320404 388.117798,255.452499 
	C378.909668,266.324280 370.421112,277.826141 360.905304,288.412018 
	C345.125580,305.966187 335.961670,327.045410 327.101898,348.783264 
	C328.370422,348.862427 329.471130,348.990936 330.571869,348.991180 
	C373.717346,349.001373 416.862793,349.005157 460.008240,348.974365 
	C461.285980,348.973450 462.563416,348.592926 463.976868,347.479584 
M302.741028,582.999939 
	C301.188812,583.096680 299.636627,583.193420 297.107635,583.351013 
	C300.691742,590.257141 302.873108,597.276978 307.265686,602.401428 
	C321.003021,618.427551 335.640381,633.679199 349.791809,649.354797 
	C355.501251,655.679199 360.672211,662.491699 366.419067,668.779724 
	C373.035919,676.019714 379.541595,683.481628 386.958099,689.841248 
	C397.245972,698.662903 410.274261,700.786072 423.319000,701.956665 
	C440.005676,703.453979 456.703705,704.903076 473.424438,705.917053 
	C485.654663,706.658813 497.928802,706.891724 510.184601,706.927612 
	C519.773254,706.955750 529.364441,706.351807 538.953308,705.994446 
	C547.211182,705.686707 555.477478,705.486267 563.721008,704.947205 
	C570.419861,704.509155 577.116089,703.826965 583.767822,702.918579 
	C594.739319,701.420349 605.710144,699.856873 616.611755,697.927917 
	C624.255615,696.575378 631.837402,694.770691 639.342651,692.775574 
	C643.504578,691.669189 647.713013,685.667786 646.957581,682.909912 
	C645.860229,678.903442 636.912781,672.926941 633.328979,673.157349 
	C616.574036,674.234497 599.801697,675.792969 583.039673,675.744812 
	C571.509277,675.711609 559.890869,673.872986 548.479919,671.879211 
	C528.814392,668.443176 509.780060,662.671692 491.615753,654.227600 
	C473.666718,645.883667 456.472565,636.226501 442.123810,622.451538 
	C430.359222,611.157410 419.198730,599.211670 408.183441,587.176758 
	C405.745850,584.513489 403.857758,582.912231 400.138306,582.926941 
	C367.989441,583.053894 335.839905,583.000000 302.741028,582.999939 
M1041.000977,296.501373 
	C1037.288330,290.788483 1033.698608,284.991119 1029.840576,279.378113 
	C1016.959290,260.636688 1004.217896,241.791641 990.945740,223.329224 
	C983.885010,213.507233 974.799133,205.153854 963.365173,201.106567 
	C952.462708,197.247406 942.541748,199.895721 942.061707,214.704086 
	C941.967285,217.614990 942.901733,220.546799 942.962036,223.477203 
	C943.368286,243.225220 943.615662,262.976532 944.037354,282.724152 
	C944.139099,287.487274 944.521057,292.262421 945.091431,296.993774 
	C946.282166,306.872253 947.558044,316.744263 949.041382,326.582397 
	C950.169312,334.063446 951.671509,341.488037 952.961365,348.682281 
	C994.053345,348.682281 1034.413818,348.682281 1075.217407,348.682281 
	C1063.799072,331.180847 1052.658569,314.105255 1041.000977,296.501373 
M715.222778,618.936523 
	C713.805298,619.291748 712.405884,619.836426 710.967651,619.973328 
	C692.997253,621.683228 675.030945,623.451477 657.042053,624.945862 
	C649.138000,625.602539 641.178650,625.565979 633.256592,626.045288 
	C628.572998,626.328613 623.913086,627.004883 618.107971,627.625732 
	C620.814026,630.130920 622.686646,632.387939 625.024475,633.947632 
	C647.943604,649.238220 673.658264,655.604370 700.785339,656.891174 
	C708.682312,657.265808 716.676025,656.682190 724.562073,655.899963 
	C732.162231,655.146118 739.884033,654.284668 747.194275,652.209106 
	C764.518555,647.290222 779.421692,637.534241 793.608887,626.783325 
	C802.923706,619.724670 813.963989,614.615295 820.757690,604.606018 
	C825.319397,597.885193 829.151367,590.669189 833.710815,583.000305 
	C809.281860,583.000305 786.122498,582.958069 762.964172,583.094543 
	C761.404175,583.103699 759.490967,584.105225 758.357544,585.253052 
	C752.773254,590.908508 747.615295,596.996216 741.892517,602.500732 
	C734.436401,609.672546 725.979187,615.445496 715.222778,618.936523 
M754.487244,313.904419 
	C748.904480,312.907288 743.342773,311.767883 737.735046,310.939941 
	C721.612427,308.559692 705.533081,305.207642 689.320801,304.293427 
	C671.138062,303.268036 652.638733,302.348267 634.828552,308.049225 
	C623.131104,311.793457 610.601440,314.575470 603.543213,326.101624 
	C599.240234,333.128296 595.866394,340.723877 591.668274,348.851776 
	C658.833679,348.851776 724.265869,348.851776 791.013611,348.851776 
	C781.346924,334.048126 772.234802,320.146729 754.487244,313.904419 
M618.500000,365.000000 
	C818.276123,365.000000 1018.052246,365.000000 1217.720947,365.000000 
	C1218.006592,363.156799 1218.232300,361.700714 1218.448730,360.304626 
	C822.131165,360.304626 425.604858,360.304626 28.899010,360.304626 
	C29.040077,362.032623 29.155094,363.441498 29.282324,365.000000 
	C225.594803,365.000000 421.547394,365.000000 618.500000,365.000000 
M1063.625854,442.994720 
	C1054.976685,444.525421 1049.007935,449.681427 1045.009155,457.198059 
	C1036.171997,473.810181 1036.627441,491.372192 1042.442993,508.351624 
	C1047.329956,522.619812 1066.325317,528.172485 1078.456665,517.096252 
	C1079.900879,515.777710 1081.670898,514.815979 1083.397949,513.613647 
	C1086.850708,521.836060 1091.661865,523.556458 1095.299561,522.874146 
	C1102.804932,521.466553 1110.436035,519.839966 1115.861328,512.819641 
	C1113.512817,511.981873 1112.183960,511.201111 1110.792603,511.066528 
	C1105.743774,510.578064 1104.476685,507.765350 1104.929321,503.079559 
	C1105.546509,496.690002 1105.905029,490.254303 1105.954102,483.835175 
	C1106.087402,466.343811 1106.000000,448.850800 1106.000000,431.358429 
	C1106.000000,421.670593 1106.000000,411.982758 1106.000000,401.275757 
	C1094.291260,402.605408 1084.166626,403.755188 1072.318359,405.100677 
	C1074.635986,407.484253 1075.825928,408.785919 1077.099609,409.999786 
	C1079.033081,411.842712 1082.619873,413.540527 1082.720581,415.446838 
	C1083.202637,424.583069 1082.748169,433.768707 1082.642090,441.755585 
	C1075.729248,442.206116 1070.116699,442.571899 1063.625854,442.994720 
M623.500000,568.000000 
	C821.461670,568.000000 1019.423401,568.000000 1217.585693,568.000000 
	C1217.921143,566.646667 1218.225464,565.419250 1218.539917,564.151367 
	C821.958862,564.151367 425.715179,564.151367 29.045889,564.151367 
	C29.115908,565.492126 29.176935,566.660706 29.233742,567.748413 
	C29.948854,567.874023 30.267721,567.979126 30.586586,567.979187 
	C227.891052,567.990784 425.195526,567.995361 623.500000,568.000000 
M588.620117,442.000000 
	C578.783569,442.280792 570.209045,445.686676 565.083191,454.269775 
	C553.744202,473.256561 553.838928,492.955353 562.988281,512.820068 
	C566.175415,519.739868 579.350586,524.683960 586.196106,522.182007 
	C591.672668,520.180359 596.711426,516.981018 601.806580,514.383606 
	C603.601990,519.644897 607.650818,523.018250 613.032837,522.999878 
	C620.247742,522.975220 631.545532,517.146912 633.015076,512.525269 
	C632.000427,512.174316 631.003235,511.621887 629.956421,511.501648 
	C623.978760,510.815186 622.431274,507.295502 622.924744,501.736572 
	C623.565918,494.515076 623.921326,487.246704 623.954163,479.996490 
	C624.071350,454.127655 624.000000,428.257965 624.000000,401.273804 
	C612.410767,402.636780 602.263123,403.830200 590.662476,405.194489 
	C592.579651,407.354553 593.663513,408.764618 594.940308,409.970367 
	C596.886658,411.808289 600.589966,413.397491 600.714478,415.279694 
	C601.322205,424.466461 600.989563,433.715424 600.989563,442.579681 
	C596.724915,442.363342 593.143982,442.181671 588.620117,442.000000 
M613.231934,604.998352 
	C622.621521,603.666138 632.149170,602.946777 641.370911,600.869507 
	C658.660095,596.975220 675.776917,592.313049 692.942383,587.880981 
	C693.702087,587.684875 694.884399,586.381775 694.746460,585.980591 
	C694.371216,584.889099 693.579529,583.580872 692.603577,583.150452 
	C691.483154,582.656372 689.987610,583.001648 688.654968,583.001587 
	C616.513367,582.999817 544.371826,583.000000 472.230225,583.000000 
	C470.666229,583.000000 469.102264,583.000000 466.841248,583.000000 
	C467.867889,584.208984 468.196503,584.796692 468.692078,585.150391 
	C482.513153,595.015198 496.295349,604.936035 510.204498,614.675415 
	C520.863892,622.139282 525.138489,622.221924 535.827576,614.581909 
	C544.040894,608.711365 553.292480,606.471313 562.996521,606.087769 
	C579.412903,605.438843 595.850708,605.333679 613.231934,604.998352 
M961.996521,462.307556 
	C961.664368,472.887756 960.981628,483.473389 961.145325,494.045898 
	C961.229309,499.470367 962.950378,504.853821 963.711060,510.286713 
	C965.206299,520.965454 979.014465,526.351440 988.012451,520.439270 
	C992.962830,517.186707 997.625977,513.497070 1002.479431,509.960144 
	C1004.045410,517.789185 1008.719849,522.865662 1014.353882,522.999329 
	C1022.092834,523.182983 1033.890381,517.114319 1034.857300,512.391785 
	C1033.024780,511.841003 1031.216675,511.116577 1029.338745,510.770447 
	C1025.328979,510.031433 1024.819580,507.299652 1024.983398,503.922913 
	C1025.375244,495.851044 1025.856934,487.776642 1025.956177,479.699036 
	C1026.110229,467.177887 1025.975952,454.653198 1025.963501,441.702820 
	C1023.248230,442.385284 1022.043579,442.848236 1020.804810,442.972931 
	C1013.651245,443.693085 1006.481140,444.258240 999.337646,445.062347 
	C997.862671,445.228394 996.476624,446.183746 995.049561,446.775299 
	C995.930420,447.936340 996.791870,449.112793 997.696533,450.255005 
	C999.252808,452.220032 1002.164856,454.142273 1002.196899,456.119812 
	C1002.443970,471.394714 1002.157654,486.678894 1001.962158,501.959229 
	C1001.945068,503.292480 1001.842896,505.117584 1001.014282,505.863922 
	C996.998474,509.481354 988.867310,507.732880 987.054016,502.724731 
	C985.868286,499.449677 985.147095,495.832336 985.089355,492.353851 
	C984.868408,479.029938 985.000000,465.700104 985.000000,452.372498 
	C985.000000,449.283325 985.000000,446.194122 985.000000,443.059937 
	C974.020325,442.796173 963.845642,443.523682 953.048340,446.276520 
	C957.299988,451.523438 964.388611,453.818390 961.996521,462.307556 
M714.555420,457.044434 
	C721.179504,477.998230 727.786926,498.957367 734.487793,519.886597 
	C734.758118,520.731018 735.911194,521.292847 736.652954,521.986328 
	C737.349182,521.208008 738.338989,520.544739 738.696106,519.633606 
	C742.203186,510.685547 745.487610,501.648987 749.076416,492.734619 
	C751.606262,486.450806 754.508789,480.317078 757.493103,473.553833 
	C758.169006,475.482941 758.582153,476.695435 759.017761,477.899780 
	C764.029480,491.756226 769.014832,505.622467 774.120117,519.444397 
	C774.494751,520.458618 775.741943,521.150574 776.583435,521.992432 
	C777.198730,521.027466 778.034790,520.138367 778.396118,519.086243 
	C783.969299,502.856934 789.343323,486.557831 795.062439,470.380615 
	C798.087463,461.823883 799.272400,452.265442 807.225891,446.100464 
	C807.836609,445.627075 807.739624,444.240692 807.922180,443.483582 
	C800.975037,443.483582 794.495239,443.483582 788.015442,443.483582 
	C787.805237,443.864502 787.594971,444.245392 787.384766,444.626312 
	C788.799866,445.736816 790.054199,447.300140 791.661011,447.870728 
	C796.015930,449.417206 795.876831,452.562866 794.950134,455.986420 
	C792.182983,466.209900 789.306030,476.403656 786.135498,487.820435 
	C783.196716,477.826355 781.243530,468.683319 777.765442,460.162720 
	C775.078186,453.579437 775.144043,448.637970 780.870850,444.204071 
	C780.979858,444.119659 780.757263,443.607117 780.698547,443.336700 
	C769.494995,443.336700 758.314453,443.336700 745.374268,443.336700 
	C760.089722,458.600281 753.867615,473.587616 747.625244,488.831024 
	C744.523743,478.347473 741.675354,468.139893 738.437927,458.057220 
	C737.114929,453.937012 735.769714,450.309814 740.185486,447.168976 
	C741.182068,446.460114 741.474060,444.760651 742.194519,443.307068 
	C730.199402,443.307068 718.677917,443.307068 705.764038,443.307068 
	C707.745178,445.704437 709.221069,447.114441 710.231628,448.802917 
	C711.681519,451.225220 712.792053,453.850616 714.555420,457.044434 
M878.470032,418.974762 
	C887.051941,436.564850 892.035828,444.399628 893.990234,444.521576 
	C893.990234,436.493317 894.159729,428.428619 893.834717,420.383881 
	C893.775940,418.926910 891.969299,417.060394 890.492981,416.220123 
	C882.001770,411.387390 872.555359,411.337769 863.302673,412.186646 
	C856.330627,412.826263 850.084961,415.966278 845.069641,421.339050 
	C840.302795,426.445740 838.369263,432.722992 837.447571,439.211578 
	C835.833313,450.575470 837.283386,461.973114 845.939636,469.954987 
	C852.430725,475.940430 860.776978,480.180450 868.812500,484.156128 
	C878.567261,488.982361 880.521790,497.928925 878.149414,507.506561 
	C876.609314,513.724121 873.124268,517.790649 866.933716,519.613159 
	C857.215515,522.474182 853.975891,521.274170 851.015930,514.367493 
	C847.223816,505.518951 843.057739,496.829468 838.964417,488.112946 
	C838.533203,487.194550 837.508301,486.554993 836.000183,485.007782 
	C836.000183,495.026550 835.857849,503.687225 836.129883,512.334839 
	C836.179504,513.911926 837.551147,516.024536 838.937073,516.890747 
	C849.573730,523.539062 861.270752,525.508606 873.377625,522.698669 
	C880.951294,520.940857 887.637878,517.300537 892.342834,510.329987 
	C898.035095,501.896667 898.501587,492.677643 897.959961,483.174377 
	C897.408752,473.502655 894.053101,465.099579 885.360229,459.856079 
	C878.502441,455.719482 871.604736,451.563599 864.383911,448.134003 
	C853.331909,442.884735 854.176392,423.316437 861.271362,418.096893 
	C866.713501,414.093323 874.892883,413.841034 878.470032,418.974762 
M148.542679,451.036041 
	C140.290955,443.597168 130.757401,440.267334 119.532921,440.906891 
	C107.154968,441.612183 98.008240,447.035431 92.039452,457.788422 
	C85.944542,468.768616 85.075912,480.708832 87.163719,492.699921 
	C88.874474,502.525421 92.788849,511.493347 101.785736,517.352600 
	C110.012344,522.710205 119.155457,524.038391 128.429398,522.814880 
	C137.269547,521.648621 144.536926,517.266418 150.157501,509.698456 
	C159.739868,496.796082 162.157730,467.321930 148.542679,451.036041 
M1165.470459,455.015076 
	C1163.098389,461.405365 1159.707642,467.621765 1158.580322,474.224609 
	C1156.636841,485.608490 1157.793579,497.145020 1163.928223,507.229584 
	C1171.308716,519.362610 1182.820312,523.856812 1196.814087,523.053223 
	C1208.949951,522.356323 1218.252563,516.839355 1223.747681,506.319580 
	C1229.388306,495.521301 1231.344116,483.765869 1229.049927,471.488556 
	C1227.726929,464.408630 1225.403076,457.837524 1220.754395,452.296051 
	C1212.676514,442.666901 1201.898804,440.152374 1189.940186,441.003326 
	C1179.842163,441.721863 1171.652954,445.869141 1165.470459,455.015076 
M698.051208,452.580627 
	C689.496277,443.187927 678.735840,440.274475 666.321960,440.886322 
	C655.006042,441.444031 643.120056,450.753998 638.899170,460.533417 
	C633.948669,472.003082 633.995300,483.759521 636.174927,495.526764 
	C637.506653,502.716461 640.879517,509.163727 646.653564,514.400696 
	C654.503723,521.520569 663.610535,523.372375 673.676880,523.021851 
	C686.691589,522.568848 696.519897,516.000061 701.367004,504.719879 
	C708.767273,487.497986 709.272705,469.762726 698.051208,452.580627 
M255.399429,502.919403 
	C251.306503,495.155365 249.895004,486.861572 250.011383,479.000000 
	C260.740540,479.000000 270.971069,478.811768 281.188873,479.090302 
	C285.426392,479.205841 286.501953,477.462463 286.006500,473.761963 
	C285.639191,471.018738 285.808167,468.098419 284.903503,465.553772 
	C282.835754,459.737762 281.024963,453.601532 277.701996,448.515015 
	C272.869171,441.117340 264.741882,440.424896 256.596497,441.004181 
	C247.209167,441.671692 239.394516,445.515564 234.019714,453.297791 
	C223.895309,467.957031 223.553024,483.938568 227.878296,500.630829 
	C230.523010,510.837494 236.382919,517.641296 246.343079,521.066162 
	C259.359314,525.541931 273.568634,523.387512 282.016968,510.457886 
	C283.243683,508.580444 284.347839,506.622955 285.508728,504.702484 
	C285.146271,504.427795 284.783844,504.153076 284.421387,503.878357 
	C283.021759,504.577972 281.653961,505.352203 280.217163,505.964600 
	C273.137360,508.982178 260.301025,509.397217 255.399429,502.919403 
M907.888062,449.636810 
	C906.433044,451.061523 904.978027,452.486206 902.627258,454.788055 
	C906.951782,454.978760 909.371826,455.085480 912.363281,455.217377 
	C911.886536,460.818207 911.049866,466.027802 911.081421,471.232147 
	C911.148438,482.299500 911.195251,493.404205 912.131531,504.418701 
	C913.088501,515.677002 918.546814,523.329773 931.693848,523.155273 
	C942.565063,523.010986 949.283508,516.925964 956.180176,508.999756 
	C951.271423,508.999756 947.015381,509.023560 942.759705,508.992889 
	C938.714172,508.963715 936.102966,506.903137 936.063965,502.878296 
	C935.910156,487.038055 936.000977,471.195404 936.000977,455.092407 
	C940.840881,455.430664 946.280518,455.810852 951.747375,456.192932 
	C951.747375,451.339905 951.747375,447.250153 951.747375,443.146851 
	C946.386230,443.493713 941.263733,443.825134 935.738037,444.182648 
	C935.738037,435.571716 935.738037,427.853668 935.738037,418.447784 
	C925.957825,429.399017 917.169983,439.239014 907.888062,449.636810 
M213.204361,466.730347 
	C216.194763,467.821075 216.128403,465.867432 215.992233,463.902252 
	C215.675400,459.330170 215.123001,454.762482 215.066879,450.188080 
	C215.022781,446.593018 213.595078,443.761108 210.278320,443.191711 
	C203.733917,442.068329 197.076096,441.376648 190.439362,441.075653 
	C181.344315,440.663177 170.700333,446.083008 167.649628,455.873383 
	C164.470306,466.076569 165.460052,475.542084 172.532837,484.146301 
	C177.562790,490.265472 184.765869,491.649567 191.587311,493.994049 
	C198.821915,496.480499 201.889557,499.813721 201.999969,505.500885 
	C202.173981,514.463013 199.349487,517.408325 190.188690,520.194519 
	C186.305527,521.375549 184.660095,520.511841 182.804413,517.397522 
	C178.356476,509.932892 173.687210,502.598053 168.988464,495.287170 
	C168.271988,494.172394 166.921906,493.464813 165.864883,492.568909 
	C165.157623,500.301697 165.448257,507.358948 166.128433,514.378479 
	C166.252777,515.661682 167.734070,517.162170 168.978836,517.932007 
	C177.717911,523.336670 187.288254,524.017334 197.152802,522.365601 
	C203.634720,521.280273 209.046127,518.503479 213.454041,513.266296 
	C218.388199,507.403992 219.143845,500.784515 219.027603,493.649963 
	C218.829712,481.501678 212.995270,475.631866 203.718033,472.020325 
	C198.809265,470.109436 193.805161,468.435120 188.941483,466.419037 
	C183.947311,464.348816 183.310165,459.744873 183.017532,455.126495 
	C182.698624,450.093872 185.762192,446.534424 189.517258,444.387695 
	C192.644348,442.600037 196.499146,442.066193 199.267441,446.595520 
	C203.380020,453.324249 208.175995,459.635315 213.204361,466.730347 
M1148.000000,457.546722 
	C1147.674805,452.729248 1147.349609,447.911774 1146.995972,442.673431 
	C1136.257935,443.195587 1126.237793,443.682861 1114.389160,444.259064 
	C1117.240601,447.135284 1119.177368,449.057404 1121.077026,451.015656 
	C1122.407104,452.386810 1124.678833,453.723785 1124.804932,455.221313 
	C1125.206421,459.987030 1124.749146,464.820404 1124.718262,469.628235 
	C1124.661011,478.510193 1124.641724,487.392639 1124.661865,496.274750 
	C1124.678345,503.598511 1127.578003,511.570099 1119.595093,517.008972 
	C1118.631348,517.665588 1118.319092,519.278320 1117.607422,520.633484 
	C1130.507812,520.633484 1142.692627,520.633484 1155.562012,520.633484 
	C1154.544800,519.341309 1154.031982,518.553040 1153.387573,517.893494 
	C1149.329346,513.739868 1147.605957,509.105652 1147.826416,502.995026 
	C1148.360352,488.191681 1148.000000,473.356110 1148.000000,457.546722 
M464.843750,513.286316 
	C464.229156,511.371582 463.093292,509.460327 463.080475,507.541565 
	C462.949036,487.903595 462.954285,468.264252 463.038239,448.625732 
	C463.055206,444.657318 462.072418,442.544098 457.458588,442.919556 
	C449.741272,443.547577 441.979340,443.612000 434.244598,444.058685 
	C433.054504,444.127441 431.909088,444.970093 429.852905,445.824890 
	C431.999329,447.371216 433.186707,448.159546 434.300201,449.041168 
	C437.860931,451.860504 440.307617,454.813141 440.159241,460.100861 
	C439.715973,475.899384 440.114960,491.720032 439.872131,507.527252 
	C439.836945,509.815796 438.339142,512.234863 437.056580,514.307983 
	C435.789459,516.355957 433.937134,518.041931 431.614075,520.727783 
	C445.435669,520.727783 457.627930,520.727783 471.633514,520.727783 
	C468.904297,517.760620 467.125427,515.826599 464.843750,513.286316 
M438.020264,410.949554 
	C438.018524,414.901764 437.358917,418.997559 438.182098,422.769775 
	C439.204254,427.453613 442.136383,431.664062 447.070923,432.828369 
	C452.029541,433.998352 457.114685,433.151093 460.082977,428.266235 
	C461.791534,425.454559 463.088226,422.255249 463.891724,419.059814 
	C465.520508,412.582336 460.180023,403.432343 454.032776,401.513092 
	C447.709381,399.538879 442.321381,402.505646 438.020264,410.949554 
M1140.242554,432.220276 
	C1149.566895,428.726135 1150.137085,413.071014 1145.004639,405.808716 
	C1141.080078,400.255585 1132.783936,399.657623 1127.447144,403.892578 
	C1121.988159,408.224548 1120.305054,419.240051 1123.539673,424.904572 
	C1127.070068,431.087006 1129.855225,434.243683 1140.242554,432.220276 
M555.066528,348.988495 
	C556.040649,347.699982 557.772217,346.458344 557.855408,345.114685 
	C558.181946,339.838959 557.988953,334.531097 557.988953,329.196198 
	C556.844666,329.119232 556.142395,328.899841 555.537781,329.056732 
	C543.261658,332.242065 531.027527,335.595337 518.715637,338.633728 
	C513.199280,339.995056 510.469666,343.839722 507.645721,348.998566 
	C523.611206,348.998566 538.875061,348.998566 555.066528,348.988495 
z"/>
<path fill="#D8212A" opacity="1.000000" stroke="none" 
	d="
M659.468567,904.000000 
	C658.330078,903.345154 657.746887,902.252563 656.977478,902.100098 
	C641.918396,899.117981 631.944336,888.564209 622.640503,877.836853 
	C611.005432,864.421387 602.430847,848.812683 594.457886,832.957947 
	C590.231018,824.552429 594.001221,818.375732 603.348267,817.973267 
	C616.373474,817.412415 629.388367,816.612976 642.412170,816.015930 
	C651.669067,815.591553 660.954956,815.623962 670.190063,814.940491 
	C690.729065,813.420349 711.554138,814.591370 731.570496,808.040771 
	C750.030457,801.999573 767.081726,793.654724 781.372192,780.178223 
	C794.773315,767.540405 809.783325,757.039612 826.874878,750.204773 
	C843.379089,743.604736 860.388123,738.266235 877.180664,732.388428 
	C899.621155,724.533691 922.077271,716.723267 944.505493,708.833618 
	C955.104858,705.105042 959.068848,706.009094 959.174255,718.880188 
	C959.353821,740.785034 953.152893,760.991089 944.620239,780.674927 
	C940.164673,790.953308 934.740845,800.807373 930.046753,810.987976 
	C924.209900,823.647095 915.521179,826.117188 903.286560,820.076111 
	C885.501099,811.294189 867.336304,812.258789 850.093323,820.666016 
	C824.560974,833.114929 799.566711,846.676025 774.447937,859.961487 
	C754.932190,870.283447 735.751953,881.252930 716.080017,891.261230 
	C705.148438,896.822632 693.921509,902.199219 681.163269,903.624084 
	C673.979065,904.000000 666.958069,904.000000 659.468567,904.000000 
z"/>
<path fill="#BE314F" opacity="1.000000" stroke="none" 
	d="
M804.583374,1.000002 
	C810.427795,9.259621 815.652771,17.661633 821.329773,25.746227 
	C830.314453,38.541073 839.961548,50.947689 845.338928,65.844505 
	C852.355652,85.282417 852.409546,104.848419 843.520569,123.598282 
	C838.527588,134.130295 831.822510,143.877701 825.558228,153.769241 
	C822.183533,159.097992 813.621399,162.121094 807.433167,159.600174 
	C795.565063,154.765427 783.423218,150.136948 772.485168,143.598969 
	C757.847473,134.849594 744.345459,124.219032 730.172852,114.667610 
	C714.566406,104.149834 697.385376,97.332237 678.672668,95.097435 
	C668.055603,93.829468 657.250000,92.639214 646.629761,93.227554 
	C627.726562,94.274773 609.347412,98.751015 591.189819,104.217209 
	C584.241516,106.308914 576.846741,107.250656 569.583374,107.866638 
	C562.626160,108.456650 559.055847,104.113449 561.324402,97.663292 
	C564.003357,90.046303 567.363770,82.592697 571.170105,75.464104 
	C579.596436,59.683334 594.827637,53.601162 610.832458,49.121845 
	C626.302368,44.792263 641.815613,40.554913 657.464600,36.948631 
	C669.818420,34.101711 682.375427,32.080830 694.897583,30.031193 
	C727.324646,24.723522 759.784729,19.589148 790.377686,6.806213 
	C793.658508,5.435369 796.663879,3.405100 799.898499,1.340363 
	C801.388916,1.000000 802.777771,1.000000 804.583374,1.000002 
z"/>
<path fill="#060707" opacity="1.000000" stroke="none" 
	d="
M1.000000,414.333313 
	C16.485197,414.000000 31.981846,413.647522 47.450710,414.150177 
	C55.074596,414.397888 63.260235,414.350372 69.470772,420.026764 
	C72.349800,422.658173 75.538887,425.713165 76.790703,429.217865 
	C80.423225,439.387787 79.758835,449.722443 73.834099,458.921051 
	C71.499016,462.546417 67.331894,464.991821 63.363678,468.543121 
	C72.603539,484.868103 76.402405,505.091125 91.249184,520.785156 
	C79.038681,520.785156 68.293861,520.785156 58.647678,520.785156 
	C54.703060,510.421326 50.912277,500.449036 47.111282,490.480621 
	C45.286720,485.695618 43.629669,480.832642 41.506363,476.183258 
	C40.763733,474.557159 38.851368,473.465240 37.473175,472.129364 
	C36.982742,472.481445 36.492313,472.833527 36.001884,473.185577 
	C36.001884,485.139954 35.614807,497.116425 36.296211,509.031830 
	C36.450825,511.735504 40.284027,514.250977 42.479717,516.805115 
	C43.392105,517.866333 44.450558,518.802063 45.442593,519.794800 
	C45.249142,520.196533 45.055695,520.598267 44.862247,521.000000 
	C35.800865,521.000000 26.739481,521.000000 17.678099,521.000000 
	C13.348904,521.000000 9.015402,521.102844 4.693768,520.921997 
	C3.703854,520.880615 2.754816,519.862244 1.393482,519.146729 
	C1.000000,519.000000 1.000000,518.500000 1.365120,518.248413 
	C3.109892,517.198120 4.662064,516.595581 5.835785,515.562866 
	C8.945693,512.826538 11.516178,510.319885 11.205549,505.129059 
	C10.294888,489.911194 10.130293,474.637329 10.071037,459.383850 
	C10.031216,449.132629 10.503940,438.869507 11.090934,428.631409 
	C11.288337,425.188416 9.969941,422.963745 7.534508,421.032928 
	C5.380289,419.325073 3.179980,417.675354 1.000007,416.000000 
	C1.000000,415.555542 1.000000,415.111115 1.000000,414.333313 
M43.994106,468.983917 
	C46.217163,465.934601 49.412857,463.189178 50.478729,459.778229 
	C53.529877,450.013977 53.137218,439.722443 51.706253,429.818146 
	C49.976200,417.843781 46.095577,415.466217 36.252327,417.643524 
	C36.252327,435.074432 36.252327,452.484039 36.252327,470.440002 
	C38.792522,469.914978 40.981949,469.462463 43.994106,468.983917 
z"/>
<path fill="#060707" opacity="1.000000" stroke="none" 
	d="
M1291.000000,503.666687 
	C1288.400513,507.767700 1286.173096,511.874756 1283.116577,515.225525 
	C1278.205566,520.609253 1271.560303,522.704956 1264.409546,522.966064 
	C1257.560791,523.216125 1250.760620,523.214661 1244.291626,520.111145 
	C1239.427979,517.777771 1236.295532,514.951721 1236.895508,508.905029 
	C1237.402100,503.799652 1237.000000,498.604065 1237.000000,492.181488 
	C1238.615601,493.481934 1239.743530,494.019287 1240.320068,494.912537 
	C1244.946411,502.079681 1249.580566,509.246796 1253.971436,516.558594 
	C1255.918457,519.800964 1257.653809,521.295044 1261.985352,520.188904 
	C1268.907349,518.421204 1273.313599,514.836670 1273.968384,508.138519 
	C1274.532349,502.371704 1272.353394,497.443268 1265.523193,494.941528 
	C1261.330322,493.405762 1257.064209,492.058746 1252.917480,490.409668 
	C1244.975220,487.251068 1240.066162,481.459259 1238.480225,473.000122 
	C1235.128296,455.121063 1243.264282,441.633545 1262.609619,441.045044 
	C1267.396362,440.899475 1272.348877,440.621185 1276.964355,441.615204 
	C1285.944336,443.549225 1286.109131,444.059479 1286.947754,452.919891 
	C1287.260376,456.223541 1286.999390,459.581482 1286.999878,462.914673 
	C1287.000122,464.188049 1287.000000,465.461395 1285.998169,467.282654 
	C1284.074829,465.066620 1282.012817,462.954376 1280.257446,460.612396 
	C1276.866211,456.088013 1273.659546,451.425659 1270.354492,446.836212 
	C1267.324341,442.628418 1260.156738,442.662567 1257.406738,447.231415 
	C1252.941040,454.650970 1253.313110,464.348572 1264.066284,468.127533 
	C1271.101074,470.599792 1279.136353,471.525055 1284.193115,477.852844 
	C1286.626465,480.897919 1288.099976,484.709869 1289.705200,488.752380 
	C1286.725830,494.388641 1287.436523,500.025116 1291.000000,502.000000 
	C1291.000000,502.444458 1291.000000,502.888885 1291.000000,503.666687 
z"/>
<path fill="#FFFFFF" opacity="1.000000" stroke="none" 
	d="
M1.000007,416.468628 
	C3.179980,417.675354 5.380289,419.325073 7.534508,421.032928 
	C9.969941,422.963745 11.288337,425.188416 11.090934,428.631409 
	C10.503940,438.869507 10.031216,449.132629 10.071037,459.383850 
	C10.130293,474.637329 10.294888,489.911194 11.205549,505.129059 
	C11.516178,510.319885 8.945693,512.826538 5.835785,515.562866 
	C4.662064,516.595581 3.109892,517.198120 1.365120,517.998413 
	C1.000000,484.312439 1.000000,450.624878 1.000007,416.468628 
z"/>
<path fill="#060707" opacity="1.000000" stroke="none" 
	d="
M1291.000000,501.536804 
	C1287.436523,500.025116 1286.725830,494.388641 1289.755371,489.141235 
	C1290.108521,488.952240 1290.554443,488.970703 1290.777222,488.985352 
	C1291.000000,493.024536 1291.000000,497.049103 1291.000000,501.536804 
z"/>
<path fill="#E84E50" opacity="1.000000" stroke="none" 
	d="
M1013.323975,628.284546 
	C1009.170044,642.319702 1000.587769,653.215759 989.632446,661.352234 
	C976.592957,671.036682 962.633972,679.829102 948.120667,687.108337 
	C921.135864,700.642883 892.462036,709.993164 863.377258,718.091431 
	C837.585083,725.272888 812.043762,733.385620 788.736023,746.896667 
	C780.590088,751.618713 773.175781,757.731812 765.872864,763.750244 
	C753.577332,773.883179 739.882874,781.380920 724.709534,785.865784 
	C706.238586,791.325378 687.255615,793.952087 667.959473,793.995178 
	C654.259766,794.025818 640.488647,794.877686 626.878357,793.773743 
	C610.277771,792.427307 593.738953,789.842957 577.305908,787.022278 
	C554.167725,783.050781 531.183533,778.189697 508.071442,774.056274 
	C492.499969,771.271362 477.265442,767.687927 465.048187,756.932312 
	C454.347870,747.512146 443.157654,738.283264 439.505249,724.187500 
	C447.325500,724.187500 455.348053,723.976440 463.352478,724.265808 
	C468.243774,724.442627 473.093933,725.549927 477.986145,725.954590 
	C487.509033,726.742310 497.055511,727.243835 506.579498,728.020081 
	C521.986084,729.275696 537.381775,730.665222 552.784363,731.971436 
	C554.108276,732.083679 555.449219,731.999329 556.782227,731.999390 
	C585.610168,732.000183 614.440430,731.776794 643.265381,732.072205 
	C665.438354,732.299377 685.522461,726.017944 703.900330,713.990601 
	C731.075378,696.205994 758.369202,678.587097 785.171082,660.252319 
	C811.716064,642.093140 837.799988,623.253479 863.902222,604.457031 
	C872.402039,598.336243 880.269348,591.342590 888.561279,584.922974 
	C889.974792,583.828552 892.071716,583.083435 893.855225,583.078674 
	C932.514404,582.975281 971.174866,583.134644 1009.832397,582.864136 
	C1016.098022,582.820374 1015.312866,587.444946 1015.794495,590.445984 
	C1017.816956,603.046936 1017.897400,615.665466 1013.323975,628.284546 
z"/>
<path fill="#E84E50" opacity="1.000000" stroke="none" 
	d="
M902.986023,212.996918 
	C912.341064,221.460083 916.760803,232.142532 919.017822,243.979080 
	C923.292786,266.398987 927.657898,288.801788 932.018250,311.205292 
	C934.291382,322.884796 936.644958,334.548615 938.920776,346.227600 
	C939.067749,346.981842 938.858521,347.805481 938.803528,348.805878 
	C937.280762,348.877289 935.973816,348.991760 934.666870,348.992157 
	C900.835144,349.001984 867.003296,348.977203 833.171692,349.040649 
	C830.279968,349.046082 828.601074,348.157806 826.729736,345.674469 
	C816.970825,332.724030 807.931763,318.961731 796.564209,307.552307 
	C776.518127,287.432556 753.499756,270.719543 729.110840,256.089478 
	C716.655823,248.618134 704.054138,241.327164 691.125427,234.725021 
	C672.947632,225.442398 654.657471,216.292343 635.944824,208.169724 
	C617.693848,200.247543 598.406372,195.461136 578.770203,191.836304 
	C558.951721,188.177780 539.057861,187.800552 519.060974,187.992142 
	C513.651367,188.043976 508.240845,188.000000 502.830750,188.000000 
	C502.620117,187.487473 502.409485,186.974960 502.198853,186.462433 
	C505.108582,182.502609 508.127411,178.617767 510.910187,174.570648 
	C527.529053,150.401154 550.806335,134.441895 576.763306,122.202400 
	C593.589233,114.268486 611.464478,109.754936 630.360596,109.925575 
	C642.739014,110.037361 655.297302,109.391151 666.910400,114.178566 
	C684.025696,121.234238 699.999023,129.969742 714.344727,142.359924 
	C737.670532,162.506073 764.346008,177.391815 794.906433,183.890656 
	C807.347839,186.536392 820.178711,187.379730 832.587891,190.141663 
	C853.206238,194.730698 874.105774,198.528168 893.644897,207.015991 
	C896.883911,208.423065 899.646606,210.926651 902.986023,212.996918 
z"/>
<path fill="#D8212A" opacity="1.000000" stroke="none" 
	d="
M420.348206,204.263947 
	C408.397278,212.784897 396.198700,220.431473 385.278290,229.600372 
	C374.941132,238.279572 365.532135,248.184021 356.476074,258.235413 
	C347.517487,268.178589 338.908813,278.557831 331.238129,289.510193 
	C321.573273,303.309906 312.967865,317.855072 304.007996,332.143005 
	C301.164429,336.677521 298.851166,341.553711 295.869507,345.987213 
	C294.883484,347.453339 292.565704,348.867371 290.850433,348.875031 
	C256.034119,349.030640 221.216873,348.978668 186.399826,348.956360 
	C186.083008,348.956177 185.766266,348.794434 185.406662,348.696442 
	C188.278900,330.277771 191.012802,311.839020 194.057251,293.451691 
	C197.907852,270.195496 201.317703,246.832550 206.253265,223.801895 
	C209.459183,208.842392 217.259781,196.004318 229.369644,185.724380 
	C241.990219,175.010864 257.208801,170.646408 272.359863,166.140793 
	C292.044373,160.286987 312.044800,155.504883 331.824005,149.957626 
	C352.521973,144.152695 373.316742,138.580765 393.694794,131.784409 
	C408.859375,126.726822 422.252228,117.975159 434.744019,107.854980 
	C451.488129,94.289818 463.440125,77.138474 473.323700,58.298161 
	C474.071320,56.873047 475.079224,55.528706 476.189941,54.359447 
	C481.160919,49.126442 486.287994,49.103764 491.004608,54.552681 
	C502.701294,68.065422 510.939941,83.430977 513.874451,101.154060 
	C517.001282,120.038727 513.719666,137.906525 502.959137,153.972733 
	C494.115692,167.176590 481.214081,175.375183 467.119110,181.996780 
	C451.602692,189.286163 436.143219,196.696793 420.348206,204.263947 
z"/>
<path fill="#BE314F" opacity="1.000000" stroke="none" 
	d="
M555.119629,825.037842 
	C556.865295,832.576965 551.069641,836.679321 547.114136,841.172363 
	C536.524841,853.200500 523.255005,861.381714 508.043976,866.510864 
	C492.610809,871.714905 476.829956,874.816223 460.524872,874.982849 
	C451.167877,875.078430 441.749146,875.679504 432.463531,874.859863 
	C412.469238,873.094971 393.523193,867.261719 376.001221,857.398926 
	C362.159729,849.607849 349.559296,839.932556 339.456879,827.691406 
	C330.660675,817.033020 321.826477,806.036194 315.315125,793.946899 
	C305.006195,774.806946 296.595337,754.642578 287.433044,734.887695 
	C279.266205,717.278992 265.895935,704.709900 249.384323,695.053894 
	C227.773270,682.415833 206.024628,669.990723 184.780762,656.758606 
	C176.633209,651.683777 172.559647,643.207703 170.849060,633.424438 
	C168.981064,622.740967 171.473099,612.605286 172.782227,602.245422 
	C173.563004,596.066711 173.520859,589.784058 173.864105,583.253784 
	C175.706604,583.155273 177.159515,583.010681 178.612488,583.009888 
	C205.267227,582.996399 231.922333,582.940247 258.575989,583.111389 
	C260.749512,583.125305 263.477570,584.150452 264.990631,585.663269 
	C275.908997,596.579590 286.650604,607.676025 297.309875,618.847351 
	C307.362457,629.382751 317.472198,639.878113 327.153259,650.750366 
	C343.395081,668.990906 361.072693,686.092346 373.716278,707.276550 
	C379.552185,717.054626 384.649963,727.277405 390.589600,736.988403 
	C398.158875,749.363770 408.062500,759.764404 419.190033,769.068481 
	C432.467926,780.170654 447.803894,787.659851 463.682190,795.381531 
	C464.691010,796.766907 465.185608,798.030640 466.056305,798.394531 
	C469.942780,800.019043 473.901611,801.492004 477.900818,802.819397 
	C482.569946,804.369080 487.312256,805.697327 492.015381,807.145691 
	C498.264740,809.070374 504.469635,811.151550 510.764282,812.912964 
	C515.638855,814.277100 520.670349,815.079895 525.546570,816.439026 
	C535.434875,819.195312 545.265320,822.159363 555.119629,825.037842 
z"/>
<path fill="#BE314F" opacity="1.000000" stroke="none" 
	d="
M463.908936,347.934479 
	C462.563416,348.592926 461.285980,348.973450 460.008240,348.974365 
	C416.862793,349.005157 373.717346,349.001373 330.571869,348.991180 
	C329.471130,348.990936 328.370422,348.862427 327.101898,348.783264 
	C335.961670,327.045410 345.125580,305.966187 360.905304,288.412018 
	C370.421112,277.826141 378.909668,266.324280 388.117798,255.452499 
	C400.934326,240.320404 417.583344,230.999832 436.492126,226.163452 
	C452.527161,222.062119 468.790802,218.408981 485.176239,216.248276 
	C501.636108,214.077774 518.410583,212.799500 534.975098,213.339920 
	C551.230347,213.870255 567.542542,216.403763 583.565002,219.450592 
	C608.350830,224.163910 631.341003,234.230255 653.413574,246.223038 
	C664.696045,252.353226 675.618347,259.182770 686.410461,266.150177 
	C688.761841,267.668274 689.862000,271.124512 692.151428,274.625641 
	C681.599487,276.910553 672.189392,279.084229 662.721497,280.967590 
	C647.250000,284.045197 631.758484,287.029358 616.242981,289.876190 
	C599.108643,293.020081 581.920776,295.872650 564.787231,299.020874 
	C545.590576,302.548126 526.436584,306.306915 507.247955,309.878418 
	C499.242706,311.368439 491.199951,312.659607 483.166809,313.996399 
	C474.637878,315.415741 465.825684,322.644287 465.875580,332.421082 
	C465.901184,337.437225 464.650665,342.459869 463.908936,347.934479 
z"/>
<path fill="#D8212A" opacity="1.000000" stroke="none" 
	d="
M303.215790,583.000000 
	C335.839905,583.000000 367.989441,583.053894 400.138306,582.926941 
	C403.857758,582.912231 405.745850,584.513489 408.183441,587.176758 
	C419.198730,599.211670 430.359222,611.157410 442.123810,622.451538 
	C456.472565,636.226501 473.666718,645.883667 491.615753,654.227600 
	C509.780060,662.671692 528.814392,668.443176 548.479919,671.879211 
	C559.890869,673.872986 571.509277,675.711609 583.039673,675.744812 
	C599.801697,675.792969 616.574036,674.234497 633.328979,673.157349 
	C636.912781,672.926941 645.860229,678.903442 646.957581,682.909912 
	C647.713013,685.667786 643.504578,691.669189 639.342651,692.775574 
	C631.837402,694.770691 624.255615,696.575378 616.611755,697.927917 
	C605.710144,699.856873 594.739319,701.420349 583.767822,702.918579 
	C577.116089,703.826965 570.419861,704.509155 563.721008,704.947205 
	C555.477478,705.486267 547.211182,705.686707 538.953308,705.994446 
	C529.364441,706.351807 519.773254,706.955750 510.184601,706.927612 
	C497.928802,706.891724 485.654663,706.658813 473.424438,705.917053 
	C456.703705,704.903076 440.005676,703.453979 423.319000,701.956665 
	C410.274261,700.786072 397.245972,698.662903 386.958099,689.841248 
	C379.541595,683.481628 373.035919,676.019714 366.419067,668.779724 
	C360.672211,662.491699 355.501251,655.679199 349.791809,649.354797 
	C335.640381,633.679199 321.003021,618.427551 307.265686,602.401428 
	C302.873108,597.276978 300.691742,590.257141 297.107635,583.351013 
	C299.636627,583.193420 301.188812,583.096680 303.215790,583.000000 
z"/>
<path fill="#D8212A" opacity="1.000000" stroke="none" 
	d="
M1041.259521,296.765503 
	C1052.658569,314.105255 1063.799072,331.180847 1075.217407,348.682281 
	C1034.413818,348.682281 994.053345,348.682281 952.961365,348.682281 
	C951.671509,341.488037 950.169312,334.063446 949.041382,326.582397 
	C947.558044,316.744263 946.282166,306.872253 945.091431,296.993774 
	C944.521057,292.262421 944.139099,287.487274 944.037354,282.724152 
	C943.615662,262.976532 943.368286,243.225220 942.962036,223.477203 
	C942.901733,220.546799 941.967285,217.614990 942.061707,214.704086 
	C942.541748,199.895721 952.462708,197.247406 963.365173,201.106567 
	C974.799133,205.153854 983.885010,213.507233 990.945740,223.329224 
	C1004.217896,241.791641 1016.959290,260.636688 1029.840576,279.378113 
	C1033.698608,284.991119 1037.288330,290.788483 1041.259521,296.765503 
z"/>
<path fill="#BE314F" opacity="1.000000" stroke="none" 
	d="
M715.583130,618.745361 
	C725.979187,615.445496 734.436401,609.672546 741.892517,602.500732 
	C747.615295,596.996216 752.773254,590.908508 758.357544,585.253052 
	C759.490967,584.105225 761.404175,583.103699 762.964172,583.094543 
	C786.122498,582.958069 809.281860,583.000305 833.710815,583.000305 
	C829.151367,590.669189 825.319397,597.885193 820.757690,604.606018 
	C813.963989,614.615295 802.923706,619.724670 793.608887,626.783325 
	C779.421692,637.534241 764.518555,647.290222 747.194275,652.209106 
	C739.884033,654.284668 732.162231,655.146118 724.562073,655.899963 
	C716.676025,656.682190 708.682312,657.265808 700.785339,656.891174 
	C673.658264,655.604370 647.943604,649.238220 625.024475,633.947632 
	C622.686646,632.387939 620.814026,630.130920 618.107971,627.625732 
	C623.913086,627.004883 628.572998,626.328613 633.256592,626.045288 
	C641.178650,625.565979 649.138000,625.602539 657.042053,624.945862 
	C675.030945,623.451477 692.997253,621.683228 710.967651,619.973328 
	C712.405884,619.836426 713.805298,619.291748 715.583130,618.745361 
z"/>
<path fill="#D8212A" opacity="1.000000" stroke="none" 
	d="
M754.895935,313.948059 
	C772.234802,320.146729 781.346924,334.048126 791.013611,348.851776 
	C724.265869,348.851776 658.833679,348.851776 591.668274,348.851776 
	C595.866394,340.723877 599.240234,333.128296 603.543213,326.101624 
	C610.601440,314.575470 623.131104,311.793457 634.828552,308.049225 
	C652.638733,302.348267 671.138062,303.268036 689.320801,304.293427 
	C705.533081,305.207642 721.612427,308.559692 737.735046,310.939941 
	C743.342773,311.767883 748.904480,312.907288 754.895935,313.948059 
z"/>
<path fill="#040707" opacity="1.000000" stroke="none" 
	d="
M618.000000,365.000000 
	C421.547394,365.000000 225.594803,365.000000 29.282324,365.000000 
	C29.155094,363.441498 29.040077,362.032623 28.899010,360.304626 
	C425.604858,360.304626 822.131165,360.304626 1218.448730,360.304626 
	C1218.232300,361.700714 1218.006592,363.156799 1217.720947,365.000000 
	C1018.052246,365.000000 818.276123,365.000000 618.000000,365.000000 
z"/>
<path fill="#060707" opacity="1.000000" stroke="none" 
	d="
M351.833344,414.989929 
	C350.151489,417.001709 348.676758,419.249115 346.730316,420.959930 
	C344.725189,422.722321 343.566925,424.028412 344.466034,427.129974 
	C349.204926,443.476379 353.593689,459.924194 358.148041,476.324554 
	C358.307648,476.899292 358.932800,477.344788 359.881165,478.519775 
	C361.319397,474.178741 362.693726,470.337616 363.859589,466.434174 
	C365.329529,461.512787 365.958069,456.216919 368.153778,451.663269 
	C371.791718,444.118622 369.477600,437.040039 367.941803,429.788666 
	C367.216492,426.364136 365.890961,423.350525 362.789948,421.149200 
	C360.672943,419.646362 359.107086,417.367188 357.294769,415.435150 
	C357.575500,415.068573 357.856201,414.702026 358.136932,414.335449 
	C371.670929,414.335449 385.204956,414.335449 400.278992,414.335449 
	C398.114441,416.701508 396.873505,418.766602 395.052521,419.898590 
	C391.436768,422.146393 390.595398,424.490387 391.880554,428.799286 
	C396.559875,444.488159 400.694000,460.339539 405.071106,476.119232 
	C405.231812,476.698730 405.783447,477.169800 406.555176,478.259247 
	C410.465332,463.235138 414.234436,448.764130 417.988953,434.289368 
	C418.151245,433.663696 418.032959,432.936340 418.292206,432.369171 
	C420.683502,427.137695 420.579346,422.863220 414.606537,419.926453 
	C412.847900,419.061737 411.781219,416.789795 409.619965,414.248718 
	C418.943329,414.248718 426.698212,414.248718 435.825073,414.248718 
	C434.341217,416.314178 433.594818,418.464111 432.138214,419.191223 
	C425.277283,422.616028 424.122253,429.408600 422.213623,435.587524 
	C417.288269,451.532745 412.692047,467.579987 408.002930,483.597748 
	C404.621552,495.148315 401.341980,506.728943 397.901459,518.261658 
	C397.497131,519.617004 396.359375,520.753540 395.561646,521.991455 
	C394.663910,520.819824 393.356171,519.779907 392.931000,518.456482 
	C387.878235,502.728058 382.890106,486.977966 378.035645,471.187225 
	C376.208923,465.245239 374.772186,459.183380 371.953583,453.021637 
	C364.132050,475.929230 356.310486,498.836823 348.184601,522.635803 
	C346.975800,521.488831 345.460693,520.728577 345.088654,519.593628 
	C341.291016,508.008850 337.317810,496.462219 334.097137,484.712128 
	C328.787964,465.342499 324.174133,445.781647 318.796387,426.432251 
	C318.015442,423.622345 314.698120,421.467468 312.414825,419.146912 
	C311.340485,418.055023 309.934753,417.289154 308.499084,416.244537 
	C309.347717,415.289764 309.762695,414.408417 310.189758,414.402557 
	C323.488342,414.219910 336.788147,414.122681 350.643860,414.266357 
	C351.364075,414.740265 351.575195,414.896790 351.833344,414.989929 
z"/>
<path fill="#060707" opacity="1.000000" stroke="none" 
	d="
M1064.065063,442.966187 
	C1070.116699,442.571899 1075.729248,442.206116 1082.642090,441.755585 
	C1082.748169,433.768707 1083.202637,424.583069 1082.720581,415.446838 
	C1082.619873,413.540527 1079.033081,411.842712 1077.099609,409.999786 
	C1075.825928,408.785919 1074.635986,407.484253 1072.318359,405.100677 
	C1084.166626,403.755188 1094.291260,402.605408 1106.000000,401.275757 
	C1106.000000,411.982758 1106.000000,421.670593 1106.000000,431.358429 
	C1106.000000,448.850800 1106.087402,466.343811 1105.954102,483.835175 
	C1105.905029,490.254303 1105.546509,496.690002 1104.929321,503.079559 
	C1104.476685,507.765350 1105.743774,510.578064 1110.792603,511.066528 
	C1112.183960,511.201111 1113.512817,511.981873 1115.861328,512.819641 
	C1110.436035,519.839966 1102.804932,521.466553 1095.299561,522.874146 
	C1091.661865,523.556458 1086.850708,521.836060 1083.397949,513.613647 
	C1081.670898,514.815979 1079.900879,515.777710 1078.456665,517.096252 
	C1066.325317,528.172485 1047.329956,522.619812 1042.442993,508.351624 
	C1036.627441,491.372192 1036.171997,473.810181 1045.009155,457.198059 
	C1049.007935,449.681427 1054.976685,444.525421 1064.065063,442.966187 
M1082.000000,463.544067 
	C1082.000000,461.880432 1082.000122,460.216797 1081.999878,458.553162 
	C1081.998535,449.474091 1076.666992,444.599548 1067.143921,445.281067 
	C1062.676636,462.306549 1061.770874,479.610260 1063.992432,497.129669 
	C1065.166138,506.385040 1070.834473,514.362915 1082.000000,509.594513 
	C1082.000000,494.303040 1082.000000,479.416992 1082.000000,463.544067 
z"/>
<path fill="#040707" opacity="1.000000" stroke="none" 
	d="
M623.000000,568.000000 
	C425.195526,567.995361 227.891052,567.990784 30.586586,567.979187 
	C30.267721,567.979126 29.948854,567.874023 29.233742,567.748413 
	C29.176935,566.660706 29.115908,565.492126 29.045889,564.151367 
	C425.715179,564.151367 821.958862,564.151367 1218.539917,564.151367 
	C1218.225464,565.419250 1217.921143,566.646667 1217.585693,568.000000 
	C1019.423401,568.000000 821.461670,568.000000 623.000000,568.000000 
z"/>
<path fill="#060707" opacity="1.000000" stroke="none" 
	d="
M589.091553,442.000000 
	C593.143982,442.181671 596.724915,442.363342 600.989563,442.579681 
	C600.989563,433.715424 601.322205,424.466461 600.714478,415.279694 
	C600.589966,413.397491 596.886658,411.808289 594.940308,409.970367 
	C593.663513,408.764618 592.579651,407.354553 590.662476,405.194489 
	C602.263123,403.830200 612.410767,402.636780 624.000000,401.273804 
	C624.000000,428.257965 624.071350,454.127655 623.954163,479.996490 
	C623.921326,487.246704 623.565918,494.515076 622.924744,501.736572 
	C622.431274,507.295502 623.978760,510.815186 629.956421,511.501648 
	C631.003235,511.621887 632.000427,512.174316 633.015076,512.525269 
	C631.545532,517.146912 620.247742,522.975220 613.032837,522.999878 
	C607.650818,523.018250 603.601990,519.644897 601.806580,514.383606 
	C596.711426,516.981018 591.672668,520.180359 586.196106,522.182007 
	C579.350586,524.683960 566.175415,519.739868 562.988281,512.820068 
	C553.838928,492.955353 553.744202,473.256561 565.083191,454.269775 
	C570.209045,445.686676 578.783569,442.280792 589.091553,442.000000 
M581.000000,481.495300 
	C581.333252,486.563690 581.582642,491.639313 582.017761,496.698944 
	C582.854980,506.433563 588.912659,514.048340 600.733337,509.576599 
	C600.815979,509.261505 600.970581,508.946533 600.970947,508.631348 
	C600.988892,492.496338 600.812805,476.358124 601.094421,460.227936 
	C601.198364,454.273102 598.437988,450.199097 594.221985,446.866211 
	C589.318054,442.989532 584.944580,444.612976 584.091797,450.859711 
	C582.748657,460.698700 582.000244,470.618896 581.000000,481.495300 
z"/>
<path fill="#E84E50" opacity="1.000000" stroke="none" 
	d="
M612.755737,604.999146 
	C595.850708,605.333679 579.412903,605.438843 562.996521,606.087769 
	C553.292480,606.471313 544.040894,608.711365 535.827576,614.581909 
	C525.138489,622.221924 520.863892,622.139282 510.204498,614.675415 
	C496.295349,604.936035 482.513153,595.015198 468.692078,585.150391 
	C468.196503,584.796692 467.867889,584.208984 466.841248,583.000000 
	C469.102264,583.000000 470.666229,583.000000 472.230225,583.000000 
	C544.371826,583.000000 616.513367,582.999817 688.654968,583.001587 
	C689.987610,583.001648 691.483154,582.656372 692.603577,583.150452 
	C693.579529,583.580872 694.371216,584.889099 694.746460,585.980591 
	C694.884399,586.381775 693.702087,587.684875 692.942383,587.880981 
	C675.776917,592.313049 658.660095,596.975220 641.370911,600.869507 
	C632.149170,602.946777 622.621521,603.666138 612.755737,604.999146 
z"/>
<path fill="#060707" opacity="1.000000" stroke="none" 
	d="
M551.010071,520.833374 
	C539.644104,520.884766 528.278198,520.936218 516.356079,520.733704 
	C515.635864,520.259766 515.424744,520.103210 515.166626,520.010071 
	C515.846802,518.440552 516.097778,516.291809 517.287598,515.409973 
	C520.867737,512.756714 521.038818,509.293793 521.076477,505.344116 
	C521.152039,497.424561 521.890381,489.510223 521.926331,481.591797 
	C521.953918,475.511414 521.611572,469.394409 520.904602,463.355652 
	C520.224609,457.547485 510.989227,454.321411 506.166260,458.073792 
	C505.397064,458.672211 505.060669,460.221619 505.049194,461.336792 
	C504.960175,469.999939 505.116577,478.666595 504.956573,487.327698 
	C504.859497,492.582367 504.211487,497.825134 504.039459,503.080719 
	C503.890961,507.617676 503.036591,512.375000 507.884674,515.582031 
	C509.142242,516.413940 509.570526,518.499512 510.715424,520.635620 
	C498.032471,520.635620 486.179901,520.635620 473.548492,520.635620 
	C474.707062,518.857849 475.395874,516.904968 476.773376,515.859680 
	C480.500549,513.031555 481.168060,509.461700 481.092621,505.030823 
	C480.845856,490.539368 480.770447,476.035461 481.124725,461.548462 
	C481.248505,456.487091 480.197876,452.615234 476.121582,449.497528 
	C474.617950,448.347473 473.647766,446.499908 471.796143,444.166321 
	C481.618591,443.735657 490.018829,443.523834 498.392578,442.935364 
	C502.702484,442.632477 504.677887,443.920013 504.039825,448.451599 
	C503.795258,450.188538 504.000000,451.988770 504.000000,454.781921 
	C508.652405,451.152283 512.476501,448.014221 516.459534,445.092834 
	C525.499817,438.462128 540.945679,441.245392 543.975647,456.100677 
	C546.182739,466.921570 546.869080,477.783020 545.121948,488.817017 
	C544.401245,493.368286 545.076782,498.130371 544.971252,502.793274 
	C544.909302,505.532959 544.560303,508.266113 544.365967,510.683960 
	C546.907349,513.563293 549.445984,516.439453 551.732178,519.757812 
	C551.259766,520.364136 551.103210,520.575256 551.010071,520.833374 
z"/>
<path fill="#060707" opacity="1.000000" stroke="none" 
	d="
M961.998169,461.848114 
	C964.388611,453.818390 957.299988,451.523438 953.048340,446.276520 
	C963.845642,443.523682 974.020325,442.796173 985.000000,443.059937 
	C985.000000,446.194122 985.000000,449.283325 985.000000,452.372498 
	C985.000000,465.700104 984.868408,479.029938 985.089355,492.353851 
	C985.147095,495.832336 985.868286,499.449677 987.054016,502.724731 
	C988.867310,507.732880 996.998474,509.481354 1001.014282,505.863922 
	C1001.842896,505.117584 1001.945068,503.292480 1001.962158,501.959229 
	C1002.157654,486.678894 1002.443970,471.394714 1002.196899,456.119812 
	C1002.164856,454.142273 999.252808,452.220032 997.696533,450.255005 
	C996.791870,449.112793 995.930420,447.936340 995.049561,446.775299 
	C996.476624,446.183746 997.862671,445.228394 999.337646,445.062347 
	C1006.481140,444.258240 1013.651245,443.693085 1020.804810,442.972931 
	C1022.043579,442.848236 1023.248230,442.385284 1025.963501,441.702820 
	C1025.975952,454.653198 1026.110229,467.177887 1025.956177,479.699036 
	C1025.856934,487.776642 1025.375244,495.851044 1024.983398,503.922913 
	C1024.819580,507.299652 1025.328979,510.031433 1029.338745,510.770447 
	C1031.216675,511.116577 1033.024780,511.841003 1034.857300,512.391785 
	C1033.890381,517.114319 1022.092834,523.182983 1014.353882,522.999329 
	C1008.719849,522.865662 1004.045410,517.789185 1002.479431,509.960144 
	C997.625977,513.497070 992.962830,517.186707 988.012451,520.439270 
	C979.014465,526.351440 965.206299,520.965454 963.711060,510.286713 
	C962.950378,504.853821 961.229309,499.470367 961.145325,494.045898 
	C960.981628,483.473389 961.664368,472.887756 961.998169,461.848114 
z"/>
<path fill="#060707" opacity="1.000000" stroke="none" 
	d="
M714.301392,456.716858 
	C712.792053,453.850616 711.681519,451.225220 710.231628,448.802917 
	C709.221069,447.114441 707.745178,445.704437 705.764038,443.307068 
	C718.677917,443.307068 730.199402,443.307068 742.194519,443.307068 
	C741.474060,444.760651 741.182068,446.460114 740.185486,447.168976 
	C735.769714,450.309814 737.114929,453.937012 738.437927,458.057220 
	C741.675354,468.139893 744.523743,478.347473 747.625244,488.831024 
	C753.867615,473.587616 760.089722,458.600281 745.374268,443.336700 
	C758.314453,443.336700 769.494995,443.336700 780.698547,443.336700 
	C780.757263,443.607117 780.979858,444.119659 780.870850,444.204071 
	C775.144043,448.637970 775.078186,453.579437 777.765442,460.162720 
	C781.243530,468.683319 783.196716,477.826355 786.135498,487.820435 
	C789.306030,476.403656 792.182983,466.209900 794.950134,455.986420 
	C795.876831,452.562866 796.015930,449.417206 791.661011,447.870728 
	C790.054199,447.300140 788.799866,445.736816 787.384766,444.626312 
	C787.594971,444.245392 787.805237,443.864502 788.015442,443.483582 
	C794.495239,443.483582 800.975037,443.483582 807.922180,443.483582 
	C807.739624,444.240692 807.836609,445.627075 807.225891,446.100464 
	C799.272400,452.265442 798.087463,461.823883 795.062439,470.380615 
	C789.343323,486.557831 783.969299,502.856934 778.396118,519.086243 
	C778.034790,520.138367 777.198730,521.027466 776.583435,521.992432 
	C775.741943,521.150574 774.494751,520.458618 774.120117,519.444397 
	C769.014832,505.622467 764.029480,491.756226 759.017761,477.899780 
	C758.582153,476.695435 758.169006,475.482941 757.493103,473.553833 
	C754.508789,480.317078 751.606262,486.450806 749.076416,492.734619 
	C745.487610,501.648987 742.203186,510.685547 738.696106,519.633606 
	C738.338989,520.544739 737.349182,521.208008 736.652954,521.986328 
	C735.911194,521.292847 734.758118,520.731018 734.487793,519.886597 
	C727.786926,498.957367 721.179504,477.998230 714.301392,456.716858 
z"/>
<path fill="#060707" opacity="1.000000" stroke="none" 
	d="
M878.249512,418.647400 
	C874.892883,413.841034 866.713501,414.093323 861.271362,418.096893 
	C854.176392,423.316437 853.331909,442.884735 864.383911,448.134003 
	C871.604736,451.563599 878.502441,455.719482 885.360229,459.856079 
	C894.053101,465.099579 897.408752,473.502655 897.959961,483.174377 
	C898.501587,492.677643 898.035095,501.896667 892.342834,510.329987 
	C887.637878,517.300537 880.951294,520.940857 873.377625,522.698669 
	C861.270752,525.508606 849.573730,523.539062 838.937073,516.890747 
	C837.551147,516.024536 836.179504,513.911926 836.129883,512.334839 
	C835.857849,503.687225 836.000183,495.026550 836.000183,485.007782 
	C837.508301,486.554993 838.533203,487.194550 838.964417,488.112946 
	C843.057739,496.829468 847.223816,505.518951 851.015930,514.367493 
	C853.975891,521.274170 857.215515,522.474182 866.933716,519.613159 
	C873.124268,517.790649 876.609314,513.724121 878.149414,507.506561 
	C880.521790,497.928925 878.567261,488.982361 868.812500,484.156128 
	C860.776978,480.180450 852.430725,475.940430 845.939636,469.954987 
	C837.283386,461.973114 835.833313,450.575470 837.447571,439.211578 
	C838.369263,432.722992 840.302795,426.445740 845.069641,421.339050 
	C850.084961,415.966278 856.330627,412.826263 863.302673,412.186646 
	C872.555359,411.337769 882.001770,411.387390 890.492981,416.220123 
	C891.969299,417.060394 893.775940,418.926910 893.834717,420.383881 
	C894.159729,428.428619 893.990234,436.493317 893.990234,444.521576 
	C892.035828,444.399628 887.051941,436.564850 878.249512,418.647400 
z"/>
<path fill="#060707" opacity="1.000000" stroke="none" 
	d="
M148.754837,451.338623 
	C162.157730,467.321930 159.739868,496.796082 150.157501,509.698456 
	C144.536926,517.266418 137.269547,521.648621 128.429398,522.814880 
	C119.155457,524.038391 110.012344,522.710205 101.785736,517.352600 
	C92.788849,511.493347 88.874474,502.525421 87.163719,492.699921 
	C85.075912,480.708832 85.944542,468.768616 92.039452,457.788422 
	C98.008240,447.035431 107.154968,441.612183 119.532921,440.906891 
	C130.757401,440.267334 140.290955,443.597168 148.754837,451.338623 
M132.000122,477.196106 
	C131.666351,470.470215 132.057327,463.598083 130.740417,457.070526 
	C129.882828,452.819641 127.269463,448.309448 124.121758,445.294495 
	C120.455437,441.782806 115.612694,443.818787 114.753166,448.771271 
	C113.504822,455.964172 112.130394,463.270569 112.168320,470.521423 
	C112.234367,483.146454 112.990601,495.797485 114.131348,508.376495 
	C114.855469,516.361450 120.922043,520.518188 129.903275,519.457764 
	C130.591385,509.814362 131.374527,499.948486 131.961304,490.071014 
	C132.196960,486.104370 132.001328,482.112122 132.000122,477.196106 
z"/>
<path fill="#060707" opacity="1.000000" stroke="none" 
	d="
M1165.713867,454.733093 
	C1171.652954,445.869141 1179.842163,441.721863 1189.940186,441.003326 
	C1201.898804,440.152374 1212.676514,442.666901 1220.754395,452.296051 
	C1225.403076,457.837524 1227.726929,464.408630 1229.049927,471.488556 
	C1231.344116,483.765869 1229.388306,495.521301 1223.747681,506.319580 
	C1218.252563,516.839355 1208.949951,522.356323 1196.814087,523.053223 
	C1182.820312,523.856812 1171.308716,519.362610 1163.928223,507.229584 
	C1157.793579,497.145020 1156.636841,485.608490 1158.580322,474.224609 
	C1159.707642,467.621765 1163.098389,461.405365 1165.713867,454.733093 
M1184.000000,484.497681 
	C1184.333618,491.243866 1184.418457,498.014557 1185.080811,504.728333 
	C1185.597290,509.964386 1187.354736,514.865234 1191.811157,518.283264 
	C1196.199829,521.649170 1200.232666,520.562744 1201.207153,515.283875 
	C1202.474731,508.415741 1203.738892,501.439514 1203.855957,494.490509 
	C1204.050781,482.917358 1203.796265,471.291138 1202.856201,459.758575 
	C1202.077026,450.198883 1198.558594,442.213806 1187.240601,444.397034 
	C1183.937012,457.233582 1183.798340,470.351746 1184.000000,484.497681 
z"/>
<path fill="#060707" opacity="1.000000" stroke="none" 
	d="
M698.324646,452.829041 
	C709.272705,469.762726 708.767273,487.497986 701.367004,504.719879 
	C696.519897,516.000061 686.691589,522.568848 673.676880,523.021851 
	C663.610535,523.372375 654.503723,521.520569 646.653564,514.400696 
	C640.879517,509.163727 637.506653,502.716461 636.174927,495.526764 
	C633.995300,483.759521 633.948669,472.003082 638.899170,460.533417 
	C643.120056,450.753998 655.006042,441.444031 666.321960,440.886322 
	C678.735840,440.274475 689.496277,443.187927 698.324646,452.829041 
M680.999939,470.758423 
	C680.666504,467.349396 680.591064,463.890442 679.943359,460.542206 
	C678.758301,454.415558 678.135559,447.868530 671.277222,444.799866 
	C666.860779,442.823822 663.434814,443.830933 663.055237,447.571167 
	C661.918396,458.773987 660.767883,469.985474 660.106506,481.222015 
	C659.810181,486.256927 660.520142,491.374786 661.041504,496.427368 
	C661.555359,501.407654 661.592102,506.675232 663.382019,511.206940 
	C664.704224,514.554260 668.174316,517.422058 671.339417,519.519836 
	C672.966797,520.598389 676.942383,521.654419 677.885864,517.801270 
	C678.959045,513.418457 679.694641,508.881622 679.926331,504.378265 
	C680.485840,493.500610 680.666565,482.603455 680.999939,470.758423 
z"/>
<path fill="#060707" opacity="1.000000" stroke="none" 
	d="
M255.682617,503.181335 
	C260.301025,509.397217 273.137360,508.982178 280.217163,505.964600 
	C281.653961,505.352203 283.021759,504.577972 284.421387,503.878357 
	C284.783844,504.153076 285.146271,504.427795 285.508728,504.702484 
	C284.347839,506.622955 283.243683,508.580444 282.016968,510.457886 
	C273.568634,523.387512 259.359314,525.541931 246.343079,521.066162 
	C236.382919,517.641296 230.523010,510.837494 227.878296,500.630829 
	C223.553024,483.938568 223.895309,467.957031 234.019714,453.297791 
	C239.394516,445.515564 247.209167,441.671692 256.596497,441.004181 
	C264.741882,440.424896 272.869171,441.117340 277.701996,448.515015 
	C281.024963,453.601532 282.835754,459.737762 284.903503,465.553772 
	C285.808167,468.098419 285.639191,471.018738 286.006500,473.761963 
	C286.501953,477.462463 285.426392,479.205841 281.188873,479.090302 
	C270.971069,478.811768 260.740540,479.000000 250.011383,479.000000 
	C249.895004,486.861572 251.306503,495.155365 255.682617,503.181335 
M252.998260,446.606812 
	C251.664505,456.211121 250.330750,465.815430 248.925308,475.935913 
	C253.983566,475.502472 257.686981,475.420288 261.275421,474.735596 
	C262.364441,474.527771 263.586334,472.794617 263.979370,471.522736 
	C266.482666,463.421356 264.379150,455.410919 262.654633,447.569427 
	C261.832733,443.832245 256.384552,443.179688 252.998260,446.606812 
z"/>
<path fill="#060707" opacity="1.000000" stroke="none" 
	d="
M908.135132,449.357910 
	C917.169983,439.239014 925.957825,429.399017 935.738037,418.447784 
	C935.738037,427.853668 935.738037,435.571716 935.738037,444.182648 
	C941.263733,443.825134 946.386230,443.493713 951.747375,443.146851 
	C951.747375,447.250153 951.747375,451.339905 951.747375,456.192932 
	C946.280518,455.810852 940.840881,455.430664 936.000977,455.092407 
	C936.000977,471.195404 935.910156,487.038055 936.063965,502.878296 
	C936.102966,506.903137 938.714172,508.963715 942.759705,508.992889 
	C947.015381,509.023560 951.271423,508.999756 956.180176,508.999756 
	C949.283508,516.925964 942.565063,523.010986 931.693848,523.155273 
	C918.546814,523.329773 913.088501,515.677002 912.131531,504.418701 
	C911.195251,493.404205 911.148438,482.299500 911.081421,471.232147 
	C911.049866,466.027802 911.886536,460.818207 912.363281,455.217377 
	C909.371826,455.085480 906.951782,454.978760 902.627258,454.788055 
	C904.978027,452.486206 906.433044,451.061523 908.135132,449.357910 
z"/>
<path fill="#060707" opacity="1.000000" stroke="none" 
	d="
M212.942734,466.427246 
	C208.175995,459.635315 203.380020,453.324249 199.267441,446.595520 
	C196.499146,442.066193 192.644348,442.600037 189.517258,444.387695 
	C185.762192,446.534424 182.698624,450.093872 183.017532,455.126495 
	C183.310165,459.744873 183.947311,464.348816 188.941483,466.419037 
	C193.805161,468.435120 198.809265,470.109436 203.718033,472.020325 
	C212.995270,475.631866 218.829712,481.501678 219.027603,493.649963 
	C219.143845,500.784515 218.388199,507.403992 213.454041,513.266296 
	C209.046127,518.503479 203.634720,521.280273 197.152802,522.365601 
	C187.288254,524.017334 177.717911,523.336670 168.978836,517.932007 
	C167.734070,517.162170 166.252777,515.661682 166.128433,514.378479 
	C165.448257,507.358948 165.157623,500.301697 165.864883,492.568909 
	C166.921906,493.464813 168.271988,494.172394 168.988464,495.287170 
	C173.687210,502.598053 178.356476,509.932892 182.804413,517.397522 
	C184.660095,520.511841 186.305527,521.375549 190.188690,520.194519 
	C199.349487,517.408325 202.173981,514.463013 201.999969,505.500885 
	C201.889557,499.813721 198.821915,496.480499 191.587311,493.994049 
	C184.765869,491.649567 177.562790,490.265472 172.532837,484.146301 
	C165.460052,475.542084 164.470306,466.076569 167.649628,455.873383 
	C170.700333,446.083008 181.344315,440.663177 190.439362,441.075653 
	C197.076096,441.376648 203.733917,442.068329 210.278320,443.191711 
	C213.595078,443.761108 215.022781,446.593018 215.066879,450.188080 
	C215.123001,454.762482 215.675400,459.330170 215.992233,463.902252 
	C216.128403,465.867432 216.194763,467.821075 212.942734,466.427246 
z"/>
<path fill="#060707" opacity="1.000000" stroke="none" 
	d="
M1148.000000,458.040100 
	C1148.000000,473.356110 1148.360352,488.191681 1147.826416,502.995026 
	C1147.605957,509.105652 1149.329346,513.739868 1153.387573,517.893494 
	C1154.031982,518.553040 1154.544800,519.341309 1155.562012,520.633484 
	C1142.692627,520.633484 1130.507812,520.633484 1117.607422,520.633484 
	C1118.319092,519.278320 1118.631348,517.665588 1119.595093,517.008972 
	C1127.578003,511.570099 1124.678345,503.598511 1124.661865,496.274750 
	C1124.641724,487.392639 1124.661011,478.510193 1124.718262,469.628235 
	C1124.749146,464.820404 1125.206421,459.987030 1124.804932,455.221313 
	C1124.678833,453.723785 1122.407104,452.386810 1121.077026,451.015656 
	C1119.177368,449.057404 1117.240601,447.135284 1114.389160,444.259064 
	C1126.237793,443.682861 1136.257935,443.195587 1146.995972,442.673431 
	C1147.349609,447.911774 1147.674805,452.729248 1148.000000,458.040100 
z"/>
<path fill="#060707" opacity="1.000000" stroke="none" 
	d="
M465.095154,513.589478 
	C467.125427,515.826599 468.904297,517.760620 471.633514,520.727783 
	C457.627930,520.727783 445.435669,520.727783 431.614075,520.727783 
	C433.937134,518.041931 435.789459,516.355957 437.056580,514.307983 
	C438.339142,512.234863 439.836945,509.815796 439.872131,507.527252 
	C440.114960,491.720032 439.715973,475.899384 440.159241,460.100861 
	C440.307617,454.813141 437.860931,451.860504 434.300201,449.041168 
	C433.186707,448.159546 431.999329,447.371216 429.852905,445.824890 
	C431.909088,444.970093 433.054504,444.127441 434.244598,444.058685 
	C441.979340,443.612000 449.741272,443.547577 457.458588,442.919556 
	C462.072418,442.544098 463.055206,444.657318 463.038239,448.625732 
	C462.954285,468.264252 462.949036,487.903595 463.080475,507.541565 
	C463.093292,509.460327 464.229156,511.371582 465.095154,513.589478 
z"/>
<path fill="#060707" opacity="1.000000" stroke="none" 
	d="
M438.155334,410.565369 
	C442.321381,402.505646 447.709381,399.538879 454.032776,401.513092 
	C460.180023,403.432343 465.520508,412.582336 463.891724,419.059814 
	C463.088226,422.255249 461.791534,425.454559 460.082977,428.266235 
	C457.114685,433.151093 452.029541,433.998352 447.070923,432.828369 
	C442.136383,431.664062 439.204254,427.453613 438.182098,422.769775 
	C437.358917,418.997559 438.018524,414.901764 438.155334,410.565369 
z"/>
<path fill="#060707" opacity="1.000000" stroke="none" 
	d="
M1139.964600,432.522766 
	C1129.855225,434.243683 1127.070068,431.087006 1123.539673,424.904572 
	C1120.305054,419.240051 1121.988159,408.224548 1127.447144,403.892578 
	C1132.783936,399.657623 1141.080078,400.255585 1145.004639,405.808716 
	C1150.137085,413.071014 1149.566895,428.726135 1139.964600,432.522766 
z"/>
<path fill="#E84E50" opacity="1.000000" stroke="none" 
	d="
M554.602661,348.993530 
	C538.875061,348.998566 523.611206,348.998566 507.645721,348.998566 
	C510.469666,343.839722 513.199280,339.995056 518.715637,338.633728 
	C531.027527,335.595337 543.261658,332.242065 555.537781,329.056732 
	C556.142395,328.899841 556.844666,329.119232 557.988953,329.196198 
	C557.988953,334.531097 558.181946,339.838959 557.855408,345.114685 
	C557.772217,346.458344 556.040649,347.699982 554.602661,348.993530 
z"/>
<path fill="#BE314F" opacity="1.000000" stroke="none" 
	d="
M555.391907,824.882812 
	C545.265320,822.159363 535.434875,819.195312 525.546570,816.439026 
	C520.670349,815.079895 515.638855,814.277100 510.764282,812.912964 
	C504.469635,811.151550 498.264740,809.070374 492.015381,807.145691 
	C487.312256,805.697327 482.569946,804.369080 477.900818,802.819397 
	C473.901611,801.492004 469.942780,800.019043 466.056305,798.394531 
	C465.185608,798.030640 464.691010,796.766907 464.011414,795.541992 
	C472.305267,797.791260 480.556976,800.604553 488.927673,803.002502 
	C507.919983,808.443298 527.011902,813.540527 545.960754,819.125122 
	C549.443176,820.151489 552.442078,822.818237 555.391907,824.882812 
z"/>
<path fill="#060707" opacity="1.000000" stroke="none" 
	d="
M551.276611,520.882385 
	C551.103210,520.575256 551.259766,520.364136 551.656555,520.107910 
	C551.736633,520.320984 551.639832,520.626160 551.276611,520.882385 
z"/>
<path fill="#060707" opacity="1.000000" stroke="none" 
	d="
M515.117615,520.276611 
	C515.424744,520.103210 515.635864,520.259766 515.892090,520.656555 
	C515.679016,520.736633 515.373840,520.639832 515.117615,520.276611 
z"/>
<path fill="#060707" opacity="1.000000" stroke="none" 
	d="
M351.882385,414.723419 
	C351.575195,414.896790 351.364075,414.740265 351.107880,414.343506 
	C351.320984,414.263397 351.626190,414.360138 351.882385,414.723419 
z"/>
<path fill="#FFFFFF" opacity="1.000000" stroke="none" 
	d="
M43.582741,468.996948 
	C40.981949,469.462463 38.792522,469.914978 36.252327,470.440002 
	C36.252327,452.484039 36.252327,435.074432 36.252327,417.643524 
	C46.095577,415.466217 49.976200,417.843781 51.706253,429.818146 
	C53.137218,439.722443 53.529877,450.013977 50.478729,459.778229 
	C49.412857,463.189178 46.217163,465.934601 43.582741,468.996948 
z"/>
<path fill="#FFFFFF" opacity="1.000000" stroke="none" 
	d="
M1082.000000,464.037506 
	C1082.000000,479.416992 1082.000000,494.303040 1082.000000,509.594513 
	C1070.834473,514.362915 1065.166138,506.385040 1063.992432,497.129669 
	C1061.770874,479.610260 1062.676636,462.306549 1067.143921,445.281067 
	C1076.666992,444.599548 1081.998535,449.474091 1081.999878,458.553162 
	C1082.000122,460.216797 1082.000000,461.880432 1082.000000,464.037506 
z"/>
<path fill="#FFFFFF" opacity="1.000000" stroke="none" 
	d="
M581.000000,481.000000 
	C582.000244,470.618896 582.748657,460.698700 584.091797,450.859711 
	C584.944580,444.612976 589.318054,442.989532 594.221985,446.866211 
	C598.437988,450.199097 601.198364,454.273102 601.094421,460.227936 
	C600.812805,476.358124 600.988892,492.496338 600.970947,508.631348 
	C600.970581,508.946533 600.815979,509.261505 600.728149,509.575226 
	C588.912659,514.048340 582.854980,506.433563 582.017761,496.698944 
	C581.582642,491.639313 581.333252,486.563690 581.000000,481.000000 
z"/>
<path fill="#FFFFFF" opacity="1.000000" stroke="none" 
	d="
M132.001068,477.663818 
	C132.001328,482.112122 132.196960,486.104370 131.961304,490.071014 
	C131.374527,499.948486 130.591385,509.814362 129.903275,519.457764 
	C120.922043,520.518188 114.855469,516.361450 114.131348,508.376495 
	C112.990601,495.797485 112.234367,483.146454 112.168320,470.521423 
	C112.130394,463.270569 113.504822,455.964172 114.753166,448.771271 
	C115.612694,443.818787 120.455437,441.782806 124.121758,445.294495 
	C127.269463,448.309448 129.882828,452.819641 130.740417,457.070526 
	C132.057327,463.598083 131.666351,470.470215 132.001068,477.663818 
z"/>
<path fill="#FFFFFF" opacity="1.000000" stroke="none" 
	d="
M1184.000000,483.998108 
	C1183.798340,470.351746 1183.937012,457.233582 1187.240601,444.397034 
	C1198.558594,442.213806 1202.077026,450.198883 1202.856201,459.758575 
	C1203.796265,471.291138 1204.050781,482.917358 1203.855957,494.490509 
	C1203.738892,501.439514 1202.474731,508.415741 1201.207153,515.283875 
	C1200.232666,520.562744 1196.199829,521.649170 1191.811157,518.283264 
	C1187.354736,514.865234 1185.597290,509.964386 1185.080811,504.728333 
	C1184.418457,498.014557 1184.333618,491.243866 1184.000000,483.998108 
z"/>
<path fill="#FFFFFF" opacity="1.000000" stroke="none" 
	d="
M681.000000,471.236298 
	C680.666565,482.603455 680.485840,493.500610 679.926331,504.378265 
	C679.694641,508.881622 678.959045,513.418457 677.885864,517.801270 
	C676.942383,521.654419 672.966797,520.598389 671.339417,519.519836 
	C668.174316,517.422058 664.704224,514.554260 663.382019,511.206940 
	C661.592102,506.675232 661.555359,501.407654 661.041504,496.427368 
	C660.520142,491.374786 659.810181,486.256927 660.106506,481.222015 
	C660.767883,469.985474 661.918396,458.773987 663.055237,447.571167 
	C663.434814,443.830933 666.860779,442.823822 671.277222,444.799866 
	C678.135559,447.868530 678.758301,454.415558 679.943359,460.542206 
	C680.591064,463.890442 680.666504,467.349396 681.000000,471.236298 
z"/>
<path fill="#FFFFFF" opacity="1.000000" stroke="none" 
	d="
M253.016357,446.183594 
	C256.384552,443.179688 261.832733,443.832245 262.654633,447.569427 
	C264.379150,455.410919 266.482666,463.421356 263.979370,471.522736 
	C263.586334,472.794617 262.364441,474.527771 261.275421,474.735596 
	C257.686981,475.420288 253.983566,475.502472 248.925308,475.935913 
	C250.330750,465.815430 251.664505,456.211121 253.016357,446.183594 
z"/>
</svg>